<?xml version="1.0" encoding="utf-8"?>
<!-- Generator: Adobe Illustrator 16.0.0, SVG Export Plug-In . SVG Version: 6.00 Build 0)  -->
<!DOCTYPE svg PUBLIC "-//W3C//DTD SVG 1.1//EN" "http://www.w3.org/Graphics/SVG/1.1/DTD/svg11.dtd">
<svg version="1.1" id="Layer_1" xmlns="http://www.w3.org/2000/svg" xmlns:xlink="http://www.w3.org/1999/xlink" x="0px" y="0px"
	 width="20px" height="20px" viewBox="0 0 20 20" enable-background="new 0 0 20 20" xml:space="preserve">
<path fill="#FFFFFF" d="M19.918,12.601C18.197,8.591,14.305,6,10,6s-8.198,2.591-9.918,6.601c-0.109,0.255-0.109,0.544,0,0.799
	C1.802,17.409,5.695,20,10,20s8.197-2.591,9.918-6.601C20.027,13.145,20.027,12.855,19.918,12.601z M10,16c-1.656,0-3-1.344-3-3
	s1.344-3,3-3s3,1.344,3,3S11.656,16,10,16z M19.725,5.543c-0.225,0.262-0.543,0.396-0.865,0.396c-0.236,0-0.476-0.073-0.68-0.225
	C15.793,3.939,12.965,3,10,3S4.207,3.939,1.82,5.715c-0.204,0.151-0.443,0.225-0.68,0.225c-0.322,0-0.641-0.135-0.865-0.396
	c-0.39-0.454-0.363-1.132,0.062-1.553C2.935,1.417,6.367,0,10,0s7.064,1.417,9.662,3.99C20.088,4.411,20.114,5.089,19.725,5.543z"/>
</svg>
