<?xml version="1.0" encoding="utf-8"?>
<!-- Generator: Adobe Illustrator 16.0.0, SVG Export Plug-In . SVG Version: 6.00 Build 0)  -->
<!DOCTYPE svg PUBLIC "-//W3C//DTD SVG 1.1//EN" "http://www.w3.org/Graphics/SVG/1.1/DTD/svg11.dtd">
<svg version="1.1" id="Layer_1" xmlns="http://www.w3.org/2000/svg" xmlns:xlink="http://www.w3.org/1999/xlink" x="0px" y="0px"
	 width="20px" height="20px" viewBox="0 0 20 20" enable-background="new 0 0 20 20" xml:space="preserve">
<path fill="#FFFFFF" d="M10.707,0.293C10.52,0.105,10.266,0,10,0S9.48,0.105,9.293,0.293L1.172,8.415C0.427,9.16,0,10.191,0,11.243
	V19c0,0.553,0.448,1,1,1h5c0.553,0,1-0.447,1-1v-6c0-0.553,0.448-1,1-1h4c0.553,0,1,0.447,1,1v6c0,0.553,0.448,1,1,1h5
	c0.553,0,1-0.447,1-1v-7.757c0-1.052-0.427-2.083-1.171-2.828L10.707,0.293z"/>
</svg>
