<?xml version="1.0" encoding="utf-8"?>
<!-- Generator: Adobe Illustrator 16.0.4, SVG Export Plug-In . SVG Version: 6.00 Build 0)  -->
<!DOCTYPE svg PUBLIC "-//W3C//DTD SVG 1.1//EN" "http://www.w3.org/Graphics/SVG/1.1/DTD/svg11.dtd">
<svg version="1.1" id="Layer_1" xmlns="http://www.w3.org/2000/svg" xmlns:xlink="http://www.w3.org/1999/xlink" x="0px" y="0px"
	 width="24px" height="32px" viewBox="0 0 24 32" enable-background="new 0 0 24 32" xml:space="preserve">
<path fill="#FFFFFF" d="M12,0C5.372,0,0,5.374,0,12c0,2.463,0.742,4.752,2.016,6.658l8.321,12.451C10.695,31.647,11.307,32,12,32
	s1.305-0.354,1.663-0.891l8.321-12.451C23.258,16.752,24,14.463,24,12C24,5.374,18.627,0,12,0z M12,16c-2.209,0-4-1.791-4-4
	s1.791-4,4-4s4,1.791,4,4S14.209,16,12,16z"/>
</svg>
