<?xml version="1.0" encoding="utf-8"?>
<!-- Generator: Adobe Illustrator 16.0.4, SVG Export Plug-In . SVG Version: 6.00 Build 0)  -->
<!DOCTYPE svg PUBLIC "-//W3C//DTD SVG 1.1//EN" "http://www.w3.org/Graphics/SVG/1.1/DTD/svg11.dtd">
<svg version="1.1" id="Layer_1" xmlns="http://www.w3.org/2000/svg" xmlns:xlink="http://www.w3.org/1999/xlink" x="0px" y="0px"
	 width="64px" height="60px" viewBox="0 0 64 60" enable-background="new 0 0 64 60" xml:space="preserve">
<g>
	<path fill="#E7A52F" d="M61,20H40.547L17.84,37.833l-5.68,18.04C12.055,56.209,12,56.586,12,57c0,1.875,1.125,3,3,3
		c0.783,0,1.437-0.197,1.931-0.562l46-34C63.619,24.929,64,24.091,64,23C64,21.125,62.875,20,61,20z"/>
	<g>
		<g>
			<path fill="#FFBB4D" d="M51.84,55.873L34.837,1.863C34.462,0.68,33.457,0,32,0s-2.393,0.68-2.768,1.863L23.522,20H3
				c-1.875,0-3,1.125-3,3c0,1.091,0.381,1.929,1.069,2.438l46,34C47.563,59.803,48.217,60,49,60c1.875,0,3-1.125,3-3
				C52,56.586,51.945,56.209,51.84,55.873z"/>
		</g>
	</g>
</g>
</svg>
