<?xml version="1.0" encoding="utf-8"?>
<!-- Generator: Adobe Illustrator 16.0.4, SVG Export Plug-In . SVG Version: 6.00 Build 0)  -->
<!DOCTYPE svg PUBLIC "-//W3C//DTD SVG 1.1//EN" "http://www.w3.org/Graphics/SVG/1.1/DTD/svg11.dtd">
<svg version="1.1" id="Layer_1" xmlns="http://www.w3.org/2000/svg" xmlns:xlink="http://www.w3.org/1999/xlink" x="0px" y="0px"
	 width="40px" height="40.001px" viewBox="0 0 40 40.001" enable-background="new 0 0 40 40.001" xml:space="preserve">
<path fill="#FFFFFF" d="M142.417,761.762l-9.646-9.646c1.407-2.381,2.228-5.148,2.228-8.115c0-8.836-7.162-16-16-16
	c-8.836,0-16,7.164-16,16s7.164,16,16,16c2.967,0,5.734-0.82,8.115-2.229l9.645,9.646c0.779,0.777,2.051,0.777,2.828,0l2.83-2.828
	C143.195,763.812,143.195,762.539,142.417,761.762z M119,752c-4.41,0-8-3.588-8-8c0-4.41,3.59-8,8-8c4.412,0,8,3.59,8,8
	C127,748.412,123.412,752,119,752z"/>
<path fill="#FFFFFF" d="M39.417,33.762l-9.646-9.646C31.179,21.734,32,18.967,32,16c0-8.836-7.162-16-16-16C7.163,0,0,7.164,0,16
	s7.163,16,16,16c2.966,0,5.734-0.82,8.115-2.229l9.645,9.646c0.779,0.777,2.051,0.777,2.828,0l2.83-2.828
	C40.195,35.812,40.195,34.539,39.417,33.762z M16,24c-4.411,0-8-3.588-8-8c0-4.41,3.589-8,8-8s8,3.59,8,8C24,20.412,20.411,24,16,24
	z"/>
</svg>
