<?xml version="1.0" encoding="utf-8"?>
<!-- Generator: Adobe Illustrator 16.0.4, SVG Export Plug-In . SVG Version: 6.00 Build 0)  -->
<!DOCTYPE svg PUBLIC "-//W3C//DTD SVG 1.1//EN" "http://www.w3.org/Graphics/SVG/1.1/DTD/svg11.dtd">
<svg version="1.1" id="Layer_1" xmlns="http://www.w3.org/2000/svg" xmlns:xlink="http://www.w3.org/1999/xlink" x="0px" y="0px"
	 width="40px" height="40px" viewBox="0 0 40 40" enable-background="new 0 0 40 40" xml:space="preserve">
<path fill="#FFFFFF" d="M38,0H27.314c-2.105,0-4.166,0.854-5.656,2.342L0.586,23.414C0.211,23.789,0,24.299,0,24.828
	c0,0.531,0.211,1.039,0.586,1.414l13.172,13.172C14.133,39.789,14.641,40,15.172,40s1.039-0.211,1.414-0.586l21.07-21.07
	C39.167,16.83,40,14.822,40,12.688V2C40,0.896,39.105,0,38,0z M32,12c0,2.207-1.795,4-4,4s-4-1.793-4-4c0-2.205,1.795-4,4-4
	S32,9.795,32,12z"/>
</svg>
