<?xml version="1.0" encoding="utf-8"?>
<!-- Generator: Adobe Illustrator 16.0.4, SVG Export Plug-In . SVG Version: 6.00 Build 0)  -->
<!DOCTYPE svg PUBLIC "-//W3C//DTD SVG 1.1//EN" "http://www.w3.org/Graphics/SVG/1.1/DTD/svg11.dtd">
<svg version="1.1" id="Layer_1" xmlns="http://www.w3.org/2000/svg" xmlns:xlink="http://www.w3.org/1999/xlink" x="0px" y="0px"
	 width="64px" height="64px" viewBox="0 0 64 64" enable-background="new 0 0 64 64" xml:space="preserve">
<path fill="#FFFFFF" d="M46,22H18c-1.1,0-2,0.9-2,2v16c0,1.1,0.9,2,2,2h28c1.1,0,2-0.9,2-2V24C48,22.9,47.1,22,46,22z
	 M42.198,29.827l-9.5,5C32.479,34.941,32.24,35,32,35s-0.479-0.059-0.698-0.174l-9.5-5c-0.733-0.386-1.015-1.292-0.629-2.026
	c0.387-0.734,1.295-1.014,2.025-0.628L32,31.804l8.802-4.632c0.731-0.388,1.64-0.105,2.025,0.628S42.932,29.441,42.198,29.827z"/>
</svg>
