<?xml version="1.0" encoding="utf-8"?>
<!-- Generator: Adobe Illustrator 16.0.4, SVG Export Plug-In . SVG Version: 6.00 Build 0)  -->
<!DOCTYPE svg PUBLIC "-//W3C//DTD SVG 1.1//EN" "http://www.w3.org/Graphics/SVG/1.1/DTD/svg11.dtd">
<svg version="1.1" id="Layer_1" xmlns="http://www.w3.org/2000/svg" xmlns:xlink="http://www.w3.org/1999/xlink" x="0px" y="0px"
	 width="64px" height="64px" viewBox="0 0 64 64" enable-background="new 0 0 64 64" xml:space="preserve">
<g>
	<g>
		<g>
			<g>
				<path fill="#FFFFFF" d="M38,43c-0.512,0-1.023-0.195-1.414-0.586c-0.781-0.781-0.781-2.047,0-2.828L44.172,32l-7.586-7.586
					c-0.781-0.781-0.781-2.047,0-2.828c0.781-0.781,2.047-0.781,2.828,0l9,9c0.781,0.781,0.781,2.047,0,2.828l-9,9
					C39.023,42.805,38.512,43,38,43z"/>
			</g>
		</g>
	</g>
	<g>
		<g>
			<path fill="#FFFFFF" d="M26,21c0.512,0,1.023,0.195,1.414,0.586c0.781,0.781,0.781,2.047,0,2.828L19.828,32l7.586,7.586
				c0.781,0.781,0.781,2.047,0,2.828s-2.047,0.781-2.828,0l-9-9c-0.781-0.781-0.781-2.047,0-2.828l9-9
				C24.977,21.195,25.488,21,26,21z"/>
		</g>
	</g>
</g>
</svg>
