<?xml version="1.0" encoding="utf-8"?>
<!-- Generator: Adobe Illustrator 16.0.4, SVG Export Plug-In . SVG Version: 6.00 Build 0)  -->
<!DOCTYPE svg PUBLIC "-//W3C//DTD SVG 1.1//EN" "http://www.w3.org/Graphics/SVG/1.1/DTD/svg11.dtd">
<svg version="1.1" id="Layer_1" xmlns="http://www.w3.org/2000/svg" xmlns:xlink="http://www.w3.org/1999/xlink" x="0px" y="0px"
   width="68.5px" height="52.312px" viewBox="0 0 68.5 52.312" enable-background="new 0 0 68.5 52.312" xml:space="preserve">
<path fill="#FFFFFF" id="icon" d="M37.875,19.592l4.68,2.18l6.977-2.082v-4.842C49.284,6.608,42.55,0,34.25,0c-8.27,0-14.987,6.561-15.281,14.758
  v22.117c0,2.002-1.623,3.625-3.625,3.625s-3.625-1.623-3.625-3.625v-9.373H0c0,0,0,9.389,0,9.498
  c0,8.457,6.855,15.312,15.312,15.312c8.383,0,15.177-6.738,15.295-15.092l0.017-21.845c0-2.002,1.623-3.625,3.625-3.625
  s3.625,1.623,3.625,3.625V19.592z M56.781,27.501v9.811c0,2.002-1.623,3.625-3.625,3.625s-3.625-1.623-3.625-3.625v-9.623
  l-6.977,2.082l-4.68-2.18v9.545c0.073,8.393,6.901,15.176,15.312,15.176C61.645,52.312,68.5,45.457,68.5,37c0-0.109,0-9.498,0-9.498
  H56.781z"/>
</svg>
