<?xml version="1.0" encoding="utf-8"?>
<!-- Generator: Adobe Illustrator 16.0.4, SVG Export Plug-In . SVG Version: 6.00 Build 0)  -->
<!DOCTYPE svg PUBLIC "-//W3C//DTD SVG 1.1//EN" "http://www.w3.org/Graphics/SVG/1.1/DTD/svg11.dtd">
<svg version="1.1" id="Layer_1" xmlns="http://www.w3.org/2000/svg" xmlns:xlink="http://www.w3.org/1999/xlink" x="0px" y="0px"
	 width="576px" height="576px" viewBox="0 0 576 576" enable-background="new 0 0 576 576" xml:space="preserve">
<g>
	<g>
		<g>
			<g>
				<g>
					<path fill="#FFFFFF" d="M396,240H180c-6.598,0-12,5.402-12,12v168c0,6.598,5.402,12,12,12h216c6.598,0,12-5.402,12-12V252
						C408,245.402,402.598,240,396,240L396,240z"/>
				</g>
			</g>
			<rect x="180" y="252" fill="#333333" width="216" height="132"/>
		</g>
		<g>
			<path fill="#992E4A" d="M204,192c0,13.266-10.734,24-24,24s-24-10.734-24-24s10.734-24,24-24S204,178.734,204,192z"/>
			<path fill="#FFC0DB" d="M132,192c0,13.266-10.734,24-24,24s-24-10.734-24-24s10.734-24,24-24S132,178.734,132,192z"/>
			<path fill="#992E4A" d="M132,264c0,13.266-10.734,24-24,24s-24-10.734-24-24s10.734-24,24-24S132,250.734,132,264z"/>
			<path fill="#FFC0DB" d="M492,264c0,13.266-10.734,24-24,24s-24-10.734-24-24s10.734-24,24-24S492,250.734,492,264z"/>
			<path fill="#FFB973" d="M132,336c0,13.266-10.734,24-24,24s-24-10.734-24-24s10.734-24,24-24S132,322.734,132,336z"/>
			<path fill="#992E4A" d="M492,336c0,13.266-10.734,24-24,24s-24-10.734-24-24s10.734-24,24-24S492,322.734,492,336z"/>
			<path fill="#FFC0DB" d="M132,408c0,13.266-10.734,24-24,24s-24-10.734-24-24s10.734-24,24-24S132,394.734,132,408z"/>
			<path fill="#FFB973" d="M492,408c0,13.266-10.734,24-24,24s-24-10.734-24-24s10.734-24,24-24S492,394.734,492,408z"/>
			<path fill="#FFB973" d="M492,192c0,13.266-10.734,24-24,24s-24-10.734-24-24s10.734-24,24-24S492,178.734,492,192z"/>
			<path fill="#FFB973" d="M276,192c0,13.266-10.734,24-24,24s-24-10.734-24-24s10.734-24,24-24S276,178.734,276,192z"/>
			<path fill="#FFC0DB" d="M348,192c0,13.266-10.734,24-24,24s-24-10.734-24-24s10.734-24,24-24S348,178.734,348,192z"/>
			<path fill="#992E4A" d="M420,192c0,13.266-10.734,24-24,24s-24-10.734-24-24s10.734-24,24-24S420,178.734,420,192z"/>
			<path fill="#FFC0DB" d="M204,120c0,13.266-10.734,24-24,24s-24-10.734-24-24s10.734-24,24-24S204,106.734,204,120z"/>
			<path fill="#FFB973" d="M132,120c0,13.266-10.734,24-24,24s-24-10.734-24-24s10.734-24,24-24S132,106.734,132,120z"/>
			<path fill="#992E4A" d="M492,120c0,13.266-10.734,24-24,24s-24-10.734-24-24s10.734-24,24-24S492,106.734,492,120z"/>
			<path fill="#992E4A" d="M276,120c0,13.266-10.734,24-24,24s-24-10.734-24-24s10.734-24,24-24S276,106.734,276,120z"/>
			<path fill="#FFB973" d="M348,120c0,13.266-10.734,24-24,24s-24-10.734-24-24s10.734-24,24-24S348,106.734,348,120z"/>
			<path fill="#FFC0DB" d="M420,120c0,13.266-10.734,24-24,24s-24-10.734-24-24s10.734-24,24-24S420,106.734,420,120z"/>
		</g>
	</g>
	<path opacity="0.1" d="M180,240c-6.598,0-12,5.402-12,12v168l180-180H180z"/>
	<path fill="#FFC0DB" d="M360,348c0,6.633-5.367,12-12,12s-12-5.367-12-12s5.367-12,12-12S360,341.367,360,348z"/>
	<path fill="#FFC0DB" d="M240,348c0,6.633-5.367,12-12,12s-12-5.367-12-12s5.367-12,12-12S240,341.367,240,348z"/>
	<path fill="#FFC0DB" d="M348,348c0,33.164-26.836,60-60,60s-60-26.836-60-60s26.836-60,60-60S348,314.836,348,348z"/>
	<path fill="#7870CC" d="M288,384c-53.062,0-96,42.938-96,96h192C384,426.938,341.062,384,288,384z"/>
</g>
<g>
	<path fill="#FFFFFF" d="M108,132c5.566,0,10.031-3.867,11.391-9H96.609C97.969,128.133,102.434,132,108,132z"/>
	<path fill="#FFFFFF" d="M102,114c0,1.664-1.336,3-3,3s-3-1.336-3-3s1.336-3,3-3S102,112.336,102,114z"/>
	<path fill="#FFFFFF" d="M120,114c0,1.664-1.336,3-3,3s-3-1.336-3-3s1.336-3,3-3S120,112.336,120,114z"/>
</g>
<g>
	<path fill="#FFFFFF" d="M180,132c5.566,0,10.031-3.867,11.391-9h-22.781C169.969,128.133,174.434,132,180,132z"/>
	<path fill="#FFFFFF" d="M174,114c0,1.664-1.336,3-3,3s-3-1.336-3-3s1.336-3,3-3S174,112.336,174,114z"/>
	<path fill="#FFFFFF" d="M192,114c0,1.664-1.336,3-3,3s-3-1.336-3-3s1.336-3,3-3S192,112.336,192,114z"/>
</g>
<g>
	<path fill="#FFFFFF" d="M252,132c5.566,0,10.031-3.867,11.391-9h-22.781C241.969,128.133,246.434,132,252,132z"/>
	<path fill="#FFFFFF" d="M246,114c0,1.664-1.336,3-3,3s-3-1.336-3-3s1.336-3,3-3S246,112.336,246,114z"/>
	<path fill="#FFFFFF" d="M264,114c0,1.664-1.336,3-3,3s-3-1.336-3-3s1.336-3,3-3S264,112.336,264,114z"/>
</g>
<g>
	<path fill="#FFFFFF" d="M324,132c5.566,0,10.031-3.867,11.391-9h-22.781C313.969,128.133,318.434,132,324,132z"/>
	<path fill="#FFFFFF" d="M318,114c0,1.664-1.336,3-3,3s-3-1.336-3-3s1.336-3,3-3S318,112.336,318,114z"/>
	<path fill="#FFFFFF" d="M336,114c0,1.664-1.336,3-3,3s-3-1.336-3-3s1.336-3,3-3S336,112.336,336,114z"/>
</g>
<g>
	<path fill="#FFFFFF" d="M396,132c5.566,0,10.031-3.867,11.391-9h-22.781C385.969,128.133,390.434,132,396,132z"/>
	<path fill="#FFFFFF" d="M390,114c0,1.664-1.336,3-3,3s-3-1.336-3-3s1.336-3,3-3S390,112.336,390,114z"/>
	<path fill="#FFFFFF" d="M408,114c0,1.664-1.336,3-3,3s-3-1.336-3-3s1.336-3,3-3S408,112.336,408,114z"/>
</g>
<g>
	<path fill="#FFFFFF" d="M468,132c5.566,0,10.031-3.867,11.391-9h-22.781C457.969,128.133,462.434,132,468,132z"/>
	<path fill="#FFFFFF" d="M462,114c0,1.664-1.336,3-3,3s-3-1.336-3-3s1.336-3,3-3S462,112.336,462,114z"/>
	<path fill="#FFFFFF" d="M480,114c0,1.664-1.336,3-3,3s-3-1.336-3-3s1.336-3,3-3S480,112.336,480,114z"/>
</g>
<g>
	<path fill="#FFFFFF" d="M108,204c5.566,0,10.031-3.867,11.391-9H96.609C97.969,200.133,102.434,204,108,204z"/>
	<path fill="#FFFFFF" d="M102,186c0,1.664-1.336,3-3,3s-3-1.336-3-3s1.336-3,3-3S102,184.336,102,186z"/>
	<path fill="#FFFFFF" d="M120,186c0,1.664-1.336,3-3,3s-3-1.336-3-3s1.336-3,3-3S120,184.336,120,186z"/>
</g>
<g>
	<path fill="#FFFFFF" d="M180,204c5.566,0,10.031-3.867,11.391-9h-22.781C169.969,200.133,174.434,204,180,204z"/>
	<path fill="#FFFFFF" d="M174,186c0,1.664-1.336,3-3,3s-3-1.336-3-3s1.336-3,3-3S174,184.336,174,186z"/>
	<path fill="#FFFFFF" d="M192,186c0,1.664-1.336,3-3,3s-3-1.336-3-3s1.336-3,3-3S192,184.336,192,186z"/>
</g>
<g>
	<path fill="#FFFFFF" d="M252,204c5.566,0,10.031-3.867,11.391-9h-22.781C241.969,200.133,246.434,204,252,204z"/>
	<path fill="#FFFFFF" d="M246,186c0,1.664-1.336,3-3,3s-3-1.336-3-3s1.336-3,3-3S246,184.336,246,186z"/>
	<path fill="#FFFFFF" d="M264,186c0,1.664-1.336,3-3,3s-3-1.336-3-3s1.336-3,3-3S264,184.336,264,186z"/>
</g>
<g>
	<path fill="#FFFFFF" d="M324,204c5.566,0,10.031-3.867,11.391-9h-22.781C313.969,200.133,318.434,204,324,204z"/>
	<path fill="#FFFFFF" d="M318,186c0,1.664-1.336,3-3,3s-3-1.336-3-3s1.336-3,3-3S318,184.336,318,186z"/>
	<path fill="#FFFFFF" d="M336,186c0,1.664-1.336,3-3,3s-3-1.336-3-3s1.336-3,3-3S336,184.336,336,186z"/>
</g>
<g>
	<path fill="#FFFFFF" d="M396,204c5.566,0,10.031-3.867,11.391-9h-22.781C385.969,200.133,390.434,204,396,204z"/>
	<path fill="#FFFFFF" d="M390,186c0,1.664-1.336,3-3,3s-3-1.336-3-3s1.336-3,3-3S390,184.336,390,186z"/>
	<path fill="#FFFFFF" d="M408,186c0,1.664-1.336,3-3,3s-3-1.336-3-3s1.336-3,3-3S408,184.336,408,186z"/>
</g>
<g>
	<path fill="#FFFFFF" d="M468,204c5.566,0,10.031-3.867,11.391-9h-22.781C457.969,200.133,462.434,204,468,204z"/>
	<path fill="#FFFFFF" d="M462,186c0,1.664-1.336,3-3,3s-3-1.336-3-3s1.336-3,3-3S462,184.336,462,186z"/>
	<path fill="#FFFFFF" d="M480,186c0,1.664-1.336,3-3,3s-3-1.336-3-3s1.336-3,3-3S480,184.336,480,186z"/>
</g>
<g>
	<path fill="#FFFFFF" d="M108,276c5.566,0,10.031-3.867,11.391-9H96.609C97.969,272.133,102.434,276,108,276z"/>
	<path fill="#FFFFFF" d="M102,258c0,1.664-1.336,3-3,3s-3-1.336-3-3s1.336-3,3-3S102,256.336,102,258z"/>
	<path fill="#FFFFFF" d="M120,258c0,1.664-1.336,3-3,3s-3-1.336-3-3s1.336-3,3-3S120,256.336,120,258z"/>
</g>
<g>
	<path fill="#FFFFFF" d="M108,348c5.566,0,10.031-3.867,11.391-9H96.609C97.969,344.133,102.434,348,108,348z"/>
	<path fill="#FFFFFF" d="M102,330c0,1.664-1.336,3-3,3s-3-1.336-3-3s1.336-3,3-3S102,328.336,102,330z"/>
	<path fill="#FFFFFF" d="M120,330c0,1.664-1.336,3-3,3s-3-1.336-3-3s1.336-3,3-3S120,328.336,120,330z"/>
</g>
<g>
	<path fill="#FFFFFF" d="M108,420c5.566,0,10.031-3.867,11.391-9H96.609C97.969,416.133,102.434,420,108,420z"/>
	<path fill="#FFFFFF" d="M102,402c0,1.664-1.336,3-3,3s-3-1.336-3-3s1.336-3,3-3S102,400.336,102,402z"/>
	<path fill="#FFFFFF" d="M120,402c0,1.664-1.336,3-3,3s-3-1.336-3-3s1.336-3,3-3S120,400.336,120,402z"/>
</g>
<g>
	<path fill="#FFFFFF" d="M468,276c5.566,0,10.031-3.867,11.391-9h-22.781C457.969,272.133,462.434,276,468,276z"/>
	<path fill="#FFFFFF" d="M462,258c0,1.664-1.336,3-3,3s-3-1.336-3-3s1.336-3,3-3S462,256.336,462,258z"/>
	<path fill="#FFFFFF" d="M480,258c0,1.664-1.336,3-3,3s-3-1.336-3-3s1.336-3,3-3S480,256.336,480,258z"/>
</g>
<g>
	<path fill="#FFFFFF" d="M468,348c5.566,0,10.031-3.867,11.391-9h-22.781C457.969,344.133,462.434,348,468,348z"/>
	<path fill="#FFFFFF" d="M462,330c0,1.664-1.336,3-3,3s-3-1.336-3-3s1.336-3,3-3S462,328.336,462,330z"/>
	<path fill="#FFFFFF" d="M480,330c0,1.664-1.336,3-3,3s-3-1.336-3-3s1.336-3,3-3S480,328.336,480,330z"/>
</g>
<g>
	<path fill="#FFFFFF" d="M468,420c5.566,0,10.031-3.867,11.391-9h-22.781C457.969,416.133,462.434,420,468,420z"/>
	<path fill="#FFFFFF" d="M462,402c0,1.664-1.336,3-3,3s-3-1.336-3-3s1.336-3,3-3S462,400.336,462,402z"/>
	<path fill="#FFFFFF" d="M480,402c0,1.664-1.336,3-3,3s-3-1.336-3-3s1.336-3,3-3S480,400.336,480,402z"/>
</g>
</svg>
