<?xml version="1.0" encoding="utf-8"?>
<!-- Generator: Adobe Illustrator 16.0.4, SVG Export Plug-In . SVG Version: 6.00 Build 0)  -->
<!DOCTYPE svg PUBLIC "-//W3C//DTD SVG 1.1//EN" "http://www.w3.org/Graphics/SVG/1.1/DTD/svg11.dtd">
<svg version="1.1" id="Layer_1" xmlns="http://www.w3.org/2000/svg" xmlns:xlink="http://www.w3.org/1999/xlink" x="0px" y="0px"
	 width="576px" height="576px" viewBox="0 0 576 576" enable-background="new 0 0 576 576" xml:space="preserve">
<g>
	<g>
		<g>
			<g>
				<path fill="#7870CC" d="M438.82,321.035l-6.668-9.961c-2.754,1.816-6.48,1.078-8.32-1.652c-1.863-2.777-1.113-6.504,1.652-8.32
					l-6.645-9.984c-2.766,1.828-6.492,1.09-8.32-1.652c-1.863-2.766-1.113-6.469,1.652-8.32l-6.668-9.984
					c-2.754,1.828-6.48,1.09-8.332-1.652c-1.852-2.766-1.102-6.492,1.652-8.32l-6.668-9.996c-2.754,1.852-6.469,1.102-8.309-1.664
					c-1.863-2.754-1.113-6.48,1.641-8.32l-6.668-9.973c-2.766,1.84-6.469,1.102-8.297-1.652c-1.875-2.754-1.148-6.48,1.617-8.32
					l-6.668-9.984c-8.25,5.531-19.395,3.316-24.961-4.957l-209.52,139.98c5.531,8.297,3.305,19.465-4.992,24.984l6.691,9.961
					c2.766-1.84,6.469-1.055,8.309,1.676c1.875,2.754,1.102,6.48-1.617,8.297l6.656,9.973c2.754-1.816,6.48-1.078,8.32,1.688
					s1.078,6.469-1.652,8.297l6.668,9.984c2.742-1.828,6.469-1.09,8.32,1.676c1.852,2.754,1.09,6.48-1.664,8.297l6.668,9.996
					c2.742-1.84,6.48-1.102,8.32,1.664c1.84,2.742,1.09,6.469-1.652,8.32l6.656,9.973c2.766-1.84,6.492-1.102,8.344,1.652
					c1.828,2.754,1.078,6.48-1.676,8.32l6.668,9.973c8.273-5.52,19.441-3.293,24.961,4.969l209.531-139.98
					C428.332,337.746,430.559,326.566,438.82,321.035z"/>
			</g>
			<g>
				<polygon fill="#FFFFFF" points="312.375,326.168 294.457,348.855 310.523,372.938 283.395,362.93 265.512,385.605
					266.637,356.73 239.508,346.723 267.34,338.859 268.477,309.961 284.531,333.996 				"/>
			</g>
		</g>
		<g opacity="0.2">
			<path d="M339.715,232.102l-184.57,123.352l70.008,104.789l184.57-123.352L339.715,232.102z M401.402,335.227L366.48,358.57
				l-63.352-94.805l34.922-23.344L401.402,335.227z M361.488,361.898l-94.77,63.352l-63.363-94.793l94.781-63.363L361.488,361.898z
				 M163.465,357.117l34.91-23.332l63.352,94.793l-34.91,23.344L163.465,357.117z"/>
			<polygon points="369.785,331.102 374.777,327.773 334.746,267.891 329.754,271.219 			"/>
			<polygon points="195.082,361.242 190.09,364.57 230.086,424.418 235.078,421.09 			"/>
		</g>
	</g>
	<path opacity="0.1" d="M438.82,321.035l-6.668-9.961c-2.754,1.816-6.48,1.078-8.32-1.652c-1.863-2.777-1.113-6.504,1.652-8.32
		l-6.645-9.984c-2.766,1.828-6.492,1.09-8.32-1.652c-1.863-2.766-1.113-6.469,1.652-8.32l-6.668-9.984
		c-2.754,1.828-6.48,1.09-8.332-1.652c-1.852-2.766-1.102-6.492,1.652-8.32l-6.668-9.996c-2.754,1.852-6.469,1.102-8.309-1.664
		c-1.863-2.754-1.113-6.48,1.641-8.32l-6.668-9.973c-2.766,1.84-6.469,1.102-8.297-1.652c-1.875-2.754-1.148-6.48,1.617-8.32
		l-6.668-9.984c-8.25,5.531-19.395,3.316-24.961-4.957l-140.25,93.703l121.125,121.125l112.465-75.129
		C428.332,337.746,430.559,326.566,438.82,321.035z"/>
	<g>
		<g>
			<g>
				<path fill="#FF794D" d="M486,331.207L307.828,153.012c-7.055,7.031-18.422,7.031-25.453-0.012l-8.484,8.484
					c2.332,2.355,2.344,6.152-0.012,8.496c-2.355,2.367-6.141,2.344-8.473-0.012l-8.484,8.484c2.332,2.355,2.332,6.152-0.012,8.496
					c-2.355,2.367-6.129,2.344-8.473,0l-8.484,8.484c2.344,2.344,2.332,6.141-0.012,8.484c-2.355,2.355-6.129,2.344-8.473,0
					l-8.508,8.508c2.344,2.332,2.355,6.117,0,8.461c-2.344,2.344-6.141,2.355-8.484,0.023l-8.484,8.473
					c2.344,2.344,2.344,6.129,0.023,8.473c-2.367,2.344-6.152,2.355-8.508,0.012l-8.484,8.484c7.031,7.02,7.055,18.41,0,25.465
					L367.207,450c7.043-7.043,18.434-7.043,25.465-0.012l8.484-8.484c-2.367-2.32-2.344-6.141,0-8.484
					c2.355-2.355,6.117-2.32,8.484,0l8.484-8.484c-2.344-2.344-2.332-6.152,0-8.484c2.355-2.355,6.141-2.344,8.484,0l8.484-8.484
					c-2.355-2.344-2.344-6.141,0-8.484c2.355-2.355,6.129-2.344,8.484,0l8.484-8.484c-2.344-2.344-2.344-6.141,0-8.484
					c2.344-2.355,6.141-2.344,8.484,0l8.484-8.484c-2.344-2.344-2.344-6.141,0-8.496c2.355-2.344,6.141-2.332,8.484,0.012
					L486,356.66C478.969,349.605,478.957,338.25,486,331.207z"/>
			</g>
			<g>
				<polygon fill="#FFFFFF" points="312.07,276.035 337.828,289.16 358.277,268.711 353.754,297.27 379.512,310.406
					350.953,314.918 346.43,343.5 333.305,317.754 304.734,322.254 325.184,301.805 				"/>
			</g>
		</g>
		<g opacity="0.2">
			<path d="M303.586,178.465l-89.109,89.098l156.984,156.973l89.109-89.109L303.586,178.465z M418.137,301.488l-80.613,80.625
				L256.91,301.5l80.613-80.613L418.137,301.488z M303.586,186.949l29.695,29.695l-80.613,80.613l-29.707-29.695L303.586,186.949z
				 M341.766,386.355l80.613-80.625l29.707,29.695l-80.625,80.625L341.766,386.355z"/>

				<rect x="275.127" y="206.099" transform="matrix(0.7071 0.7071 -0.7071 0.7071 252.6545 -125.755)" width="5.999" height="72.009"/>

				<rect x="360.918" y="357.903" transform="matrix(0.7071 -0.7071 0.7071 0.7071 -138.9431 386.3665)" width="71.992" height="5.999"/>
		</g>
	</g>
	<path opacity="0.1" d="M307.828,153.012c-7.055,7.031-18.422,7.031-25.453-0.012l-8.484,8.484c2.332,2.355,2.344,6.152-0.012,8.496
		c-2.355,2.367-6.141,2.344-8.473-0.012l-8.484,8.484c2.332,2.355,2.332,6.152-0.012,8.496c-2.355,2.367-6.129,2.344-8.473,0
		l-8.484,8.484c2.344,2.344,2.332,6.141-0.012,8.484c-2.355,2.355-6.129,2.344-8.473,0l-8.508,8.508
		c2.344,2.332,2.355,6.117,0,8.461c-2.344,2.344-6.141,2.355-8.484,0.023l-8.484,8.473c2.344,2.344,2.344,6.129,0.023,8.473
		c-2.367,2.344-6.152,2.355-8.508,0.012l-8.484,8.484c7.031,7.02,7.055,18.41,0,25.465l85.535,85.535l69.598-168L307.828,153.012z"
		/>
	<g>
		<g>
			<g>
				<path fill="#FFAD40" d="M331.922,140.508l-11.086-4.582c-1.277,3.059-4.793,4.512-7.84,3.246
					c-3.082-1.277-4.523-4.781-3.246-7.84l-11.086-4.594c-1.277,3.059-4.793,4.512-7.84,3.246c-3.082-1.266-4.523-4.77-3.246-7.84
					l-11.086-4.594c-1.277,3.07-4.793,4.512-7.84,3.246c-3.082-1.266-4.523-4.77-3.246-7.828l-11.109-4.594
					c-1.266,3.059-4.77,4.5-7.828,3.234c-3.07-1.266-4.523-4.77-3.258-7.828l-11.086-4.594c-1.266,3.059-4.77,4.512-7.828,3.246
					c-3.07-1.277-4.523-4.77-3.258-7.84L209.953,90c-3.797,9.188-14.309,13.547-23.508,9.738L90,332.555
					c9.188,3.809,13.547,14.332,9.738,23.52l11.086,4.582c1.266-3.059,4.793-4.5,7.84-3.234c3.082,1.266,4.512,4.77,3.246,7.828
					l11.098,4.594c1.266-3.059,4.781-4.512,7.84-3.246c3.07,1.277,4.512,4.781,3.246,7.84l11.086,4.594
					c1.266-3.07,4.781-4.512,7.84-3.246c3.07,1.277,4.512,4.77,3.246,7.84l11.086,4.594c1.266-3.07,4.781-4.512,7.84-3.246
					c3.07,1.266,4.512,4.77,3.246,7.84l11.086,4.594c1.266-3.07,4.781-4.523,7.84-3.258c3.07,1.277,4.512,4.781,3.246,7.84
					l11.086,4.594c3.809-9.188,14.32-13.547,23.508-9.738l96.457-232.805C332.473,160.219,328.113,149.707,331.922,140.508z"/>
			</g>
			<g>
				<polygon fill="#FFFFFF" points="229.617,215.039 227.344,243.855 254.062,254.93 225.949,261.68 223.664,290.496
					208.57,265.852 180.445,272.602 199.219,250.617 184.113,225.949 210.832,237.012 				"/>
			</g>
		</g>
		<path opacity="0.2" d="M202.875,122.777l-2.777-1.137l-83.812,202.324l-1.137,2.777l113.648,47.074l2.777,1.137l83.801-202.324
			l1.137-2.777L202.875,122.777z M184.98,173.824l105.34,43.629L246.691,322.77l-105.34-43.629L184.98,173.824z M228.316,367.125
			l-105.34-43.641l16.078-38.789l105.328,43.629L228.316,367.125z M292.617,211.898l-105.34-43.629l16.078-38.801l105.328,43.641
			L292.617,211.898z"/>
		<polygon opacity="0.2" points="282.387,181.688 215.859,154.137 213.562,159.691 280.09,187.242 		"/>
		<polygon opacity="0.2" points="149.273,314.906 215.801,342.457 218.098,336.902 151.57,309.352 		"/>
	</g>
</g>
</svg>
