<?xml version="1.0" encoding="utf-8"?>
<!-- Generator: Adobe Illustrator 16.0.4, SVG Export Plug-In . SVG Version: 6.00 Build 0)  -->
<!DOCTYPE svg PUBLIC "-//W3C//DTD SVG 1.1//EN" "http://www.w3.org/Graphics/SVG/1.1/DTD/svg11.dtd">
<svg version="1.1" id="Layer_1" xmlns="http://www.w3.org/2000/svg" xmlns:xlink="http://www.w3.org/1999/xlink" x="0px" y="0px"
	 width="576px" height="576px" viewBox="0 0 576 576" enable-background="new 0 0 576 576" xml:space="preserve">
<rect x="420" y="96" fill="#FFAD40" width="24" height="120"/>
<rect x="384" y="96" fill="#FFAD40" width="24" height="120"/>
<g>
	<g>
		<polygon fill="#FFFFFF" points="156,120 156,216 252,216 		"/>
		<polygon opacity="0.1" points="156,120 156,216 252,216 		"/>
		<polygon fill="#FFFFFF" points="372,216 468,216 468,120 		"/>
		<polygon opacity="0.1" points="372,216 468,216 468,120 		"/>
	</g>
	<path fill="#FFFFFF" d="M223.172,462.316C226.02,472.758,235.5,480,246.328,480h131.344c10.828,0,20.309-7.242,23.156-17.684
		L468,216H156L223.172,462.316z"/>
	<polygon opacity="0.1" points="162.539,239.988 461.461,239.988 468,216 156,216 	"/>
	<path fill="#FFFFFF" d="M156,216h312L355.031,103.031c-4.5-4.5-10.605-7.031-16.969-7.031l0,0h-52.125
		c-6.363,0-12.469,2.531-16.969,7.031L156,216z"/>
</g>
<path fill="#FF5967" d="M360,396v-12h12v-12h-12c-6.633,0-12-5.367-12-12v-12h12v-12h-12c-6.633,0-12-5.367-12-12v-12h12v-12h-12
	c-6.633,0-12-5.367-12-12v-12h-24v12c0,6.633-5.367,12-12,12h-12v12h12v12c0,6.633-5.367,12-12,12h-12v12h12v12
	c0,6.633-5.367,12-12,12h-12v12h12v12v24h96V396z M300,312h24v24h-24V312z M288,348h48v24h-48V348z M348,408h-72v-24h72V408z"/>
<rect x="84" y="396" fill="#FFFFFF" width="60" height="48"/>
<path fill="#FFAD40" d="M284.426,345.738l-1.465-0.059c-3.117,0.082-5.93,1.289-8.156,3.516l-41.836,41.836
	c-4.688,4.688-10.828,7.031-16.969,7.031s-12.281-2.344-16.969-7.031l-41.836-41.836c-2.297-2.297-5.238-3.516-8.484-3.516h-0.234
	l-0.914,0.059c-3.234,0.223-6.398,2.004-8.473,4.77C126.598,367.16,120,387.035,120,408c0,52.934,43.066,96,96,96s96-43.066,96-96
	c0-20.965-6.609-40.852-19.148-57.551C290.848,347.766,287.789,346.055,284.426,345.738z"/>
</svg>
