<?xml version="1.0" encoding="utf-8"?>
<!-- Generator: Adobe Illustrator 16.0.4, SVG Export Plug-In . SVG Version: 6.00 Build 0)  -->
<!DOCTYPE svg PUBLIC "-//W3C//DTD SVG 1.1//EN" "http://www.w3.org/Graphics/SVG/1.1/DTD/svg11.dtd">
<svg version="1.1" id="Layer_1" xmlns="http://www.w3.org/2000/svg" xmlns:xlink="http://www.w3.org/1999/xlink" x="0px" y="0px"
	 width="576px" height="576px" viewBox="0 0 576 576" enable-background="new 0 0 576 576" xml:space="preserve">
<g>
	<g>
		<g>
			<path fill="#3ECCCC" d="M360,230.062V168c0-13.254-10.746-24-24-24h-96c-13.254,0-24,10.746-24,24v62.062
				c0,6.363,2.531,12.469,7.031,16.969L240,264l-16.969,16.969c-4.5,4.5-7.031,10.605-7.031,16.969V456c0,13.254,10.746,24,24,24h96
				c13.254,0,24-10.746,24-24V297.938c0-6.363-2.531-12.469-7.031-16.969L336,264l16.969-16.969
				C357.469,242.531,360,236.426,360,230.062z"/>
		</g>
		<path fill="#F279AC" d="M336,132c0-6.598-5.402-12-12-12h-24v-6c0-3.316,2.684-6,6-6h6V96h-48v12h6c3.316,0,6,2.684,6,6v6h-24
			c-6.598,0-12,5.402-12,12v12h96V132z"/>
		<path opacity="0.1" d="M360,230.062V168c0-13.254-10.746-24-24-24h-96c-13.254,0-24,10.746-24,24v62.062
			c0,6.363,2.531,12.469,7.031,16.969L240,264l-16.969,16.969c-4.5,4.5-7.031,10.605-7.031,16.969V384l120-120l16.969-16.969
			C357.469,242.531,360,236.426,360,230.062z"/>
		<path fill="#FFFFFF" d="M318.879,209.824c-6.82-6.832-17.883-6.832-24.703,0L288,216l-6.176-6.176
			c-6.832-6.832-17.883-6.832-24.703,0c-6.832,6.82-6.832,17.883,0,24.703L288,265.406l30.879-30.879
			C325.711,227.707,325.711,216.645,318.879,209.824z"/>
	</g>
	<g opacity="0.5">
		<path fill="#FFFFFF" d="M336,390c0,3.305-2.695,6-6,6l0,0c-3.305,0-6-2.695-6-6v-84c0-3.305,2.695-6,6-6l0,0c3.305,0,6,2.695,6,6
			V390z"/>
		<path fill="#FFFFFF" d="M324,414c0-3.305,2.695-6,6-6l0,0c3.305,0,6,2.695,6,6v12c0,3.305-2.695,6-6,6l0,0c-3.305,0-6-2.695-6-6
			V414z"/>
		<circle fill="#FFFFFF" cx="330" cy="450" r="6"/>
	</g>
</g>
<rect x="192" y="336" fill="#CCCCCC" width="192" height="48"/>
<rect x="60" y="336" fill="#CCCCCC" width="36" height="48"/>
<rect x="480" y="336" fill="#CCCCCC" width="36" height="48"/>
<g opacity="0.1">
	<circle cx="204" cy="360" r="6"/>
	<path d="M204,342c3.316,0,6-2.684,6-6h-12C198,339.316,200.684,342,204,342z"/>
	<path d="M204,378c-3.316,0-6,2.684-6,6h12C210,380.684,207.316,378,204,378z"/>
	<circle cx="228" cy="360" r="6"/>
	<path d="M228,342c3.316,0,6-2.684,6-6h-12C222,339.316,224.684,342,228,342z"/>
	<path d="M228,378c-3.316,0-6,2.684-6,6h12C234,380.684,231.316,378,228,378z"/>
	<circle cx="252" cy="360" r="6"/>
	<path d="M252,342c3.316,0,6-2.684,6-6h-12C246,339.316,248.684,342,252,342z"/>
	<path d="M252,378c-3.316,0-6,2.684-6,6h12C258,380.684,255.316,378,252,378z"/>
	<circle cx="276" cy="360" r="6"/>
	<path d="M276,342c3.316,0,6-2.684,6-6h-12C270,339.316,272.684,342,276,342z"/>
	<path d="M276,378c-3.316,0-6,2.684-6,6h12C282,380.684,279.316,378,276,378z"/>
	<circle cx="300" cy="360" r="6"/>
	<path d="M300,342c3.316,0,6-2.684,6-6h-12C294,339.316,296.684,342,300,342z"/>
	<path d="M300,378c-3.316,0-6,2.684-6,6h12C306,380.684,303.316,378,300,378z"/>
	<circle cx="324" cy="360" r="6"/>
	<path d="M324,342c3.316,0,6-2.684,6-6h-12C318,339.316,320.684,342,324,342z"/>
	<path d="M324,378c-3.316,0-6,2.684-6,6h12C330,380.684,327.316,378,324,378z"/>
	<circle cx="348" cy="360" r="6"/>
	<path d="M348,342c3.316,0,6-2.684,6-6h-12C342,339.316,344.684,342,348,342z"/>
	<path d="M348,378c-3.316,0-6,2.684-6,6h12C354,380.684,351.316,378,348,378z"/>
	<circle cx="372" cy="360" r="6"/>
	<path d="M372,342c3.316,0,6-2.684,6-6h-12C366,339.316,368.684,342,372,342z"/>
	<path d="M372,378c-3.316,0-6,2.684-6,6h12C378,380.684,375.316,378,372,378z"/>
	<circle cx="216" cy="348" r="6"/>
	<circle cx="216" cy="372" r="6"/>
	<path d="M198,348c0-3.316-2.684-6-6-6v12C195.316,354,198,351.316,198,348z"/>
	<path d="M192,366v12c3.316,0,6-2.684,6-6S195.316,366,192,366z"/>
	<circle cx="240" cy="348" r="6"/>
	<circle cx="240" cy="372" r="6"/>
	<circle cx="264" cy="348" r="6"/>
	<circle cx="264" cy="372" r="6"/>
	<circle cx="288" cy="348" r="6"/>
	<circle cx="288" cy="372" r="6"/>
	<circle cx="312" cy="348" r="6"/>
	<circle cx="312" cy="372" r="6"/>
	<circle cx="336" cy="348" r="6"/>
	<circle cx="336" cy="372" r="6"/>
	<circle cx="360" cy="348" r="6"/>
	<circle cx="360" cy="372" r="6"/>
	<path d="M378,348c0,3.316,2.684,6,6,6v-12C380.684,342,378,344.684,378,348z"/>
	<path d="M378,372c0,3.316,2.684,6,6,6v-12C380.684,366,378,368.684,378,372z"/>
</g>
<g opacity="0.1">
	<circle cx="72" cy="360" r="6"/>
	<path d="M72,342c3.316,0,6-2.684,6-6H66C66,339.316,68.684,342,72,342z"/>
	<path d="M72,378c-3.316,0-6,2.684-6,6h12C78,380.684,75.316,378,72,378z"/>
	<path d="M96,366c-3.316,0-6-2.684-6-6s2.684-6,6-6"/>
	<path d="M96,336h-6c0,3.316,2.684,6,6,6V336z"/>
	<circle cx="84" cy="348" r="6"/>
	<circle cx="84" cy="372" r="6"/>
	<path d="M66,348c0-3.316-2.684-6-6-6v12C63.316,354,66,351.316,66,348z"/>
	<path d="M60,366v12c3.316,0,6-2.684,6-6S63.316,366,60,366z"/>
	<path d="M96,378c-3.316,0-6,2.684-6,6h6V378z"/>
</g>
<g opacity="0.1">
	<circle cx="504" cy="360" r="6"/>
	<path d="M504,378c-3.316,0-6,2.684-6,6h12C510,380.684,507.316,378,504,378z"/>
	<path d="M504,342c3.316,0,6-2.684,6-6h-12C498,339.316,500.684,342,504,342z"/>
	<path d="M480,354c3.316,0,6,2.684,6,6s-2.684,6-6,6"/>
	<path d="M480,384h6c0-3.316-2.684-6-6-6V384z"/>
	<circle cx="492" cy="372" r="6"/>
	<circle cx="492" cy="348" r="6"/>
	<path d="M510,372c0,3.316,2.684,6,6,6v-12C512.684,366,510,368.684,510,372z"/>
	<path d="M516,354v-12c-3.316,0-6,2.684-6,6S512.684,354,516,354z"/>
	<path d="M480,342c3.316,0,6-2.684,6-6h-6V342z"/>
</g>
<path fill="#CCCCCC" d="M108,264h36v192h-36c-6.633,0-12-5.367-12-12V276C96,269.367,101.367,264,108,264z"/>
<path fill="#CCCCCC" d="M192,468c0,6.598-5.402,12-12,12h-24c-6.598,0-12-5.402-12-12V252c0-6.598,5.402-12,12-12h24
	c6.598,0,12,5.402,12,12V468z"/>
<rect x="132" y="264" opacity="0.1" width="12" height="192"/>
<g>
	<path fill="#CCCCCC" d="M468,456h-36V264h36c6.633,0,12,5.367,12,12v168C480,450.633,474.633,456,468,456z"/>
	<path fill="#CCCCCC" d="M384,252c0-6.598,5.402-12,12-12h24c6.598,0,12,5.402,12,12v216c0,6.598-5.402,12-12,12h-24
		c-6.598,0-12-5.402-12-12V252z"/>
	<rect x="432" y="264" opacity="0.1" width="12" height="192"/>
</g>
<g>
	<rect x="192" y="336" opacity="0.1" width="192" height="48"/>
	<rect x="60" y="336" opacity="0.1" width="36" height="48"/>
	<rect x="480" y="336" opacity="0.1" width="36" height="48"/>
</g>
</svg>
