<?xml version="1.0" encoding="utf-8"?>
<!-- Generator: Adobe Illustrator 16.0.4, SVG Export Plug-In . SVG Version: 6.00 Build 0)  -->
<!DOCTYPE svg PUBLIC "-//W3C//DTD SVG 1.1//EN" "http://www.w3.org/Graphics/SVG/1.1/DTD/svg11.dtd">
<svg version="1.1" id="Layer_1" xmlns="http://www.w3.org/2000/svg" xmlns:xlink="http://www.w3.org/1999/xlink" x="0px" y="0px"
	 width="576px" height="576px" viewBox="0 0 576 576" enable-background="new 0 0 576 576" xml:space="preserve">
<g>
	<g>
		<path fill="#68BF60" d="M384,336h-12c-6.633,0-12-5.367-12-12s5.367-12,12-12h12c6.621,0,12-5.379,12-12v-12
			c0-6.633,5.367-12,12-12s12,5.367,12,12v12C420,319.852,403.852,336,384,336z"/>
	</g>
	<g>
		<path fill="#68BF60" d="M360,408c-6.633,0-12-5.367-12-12V264c0-6.633,5.367-12,12-12s12,5.367,12,12v132
			C372,402.633,366.633,408,360,408z"/>
	</g>
	<polygon fill="#FF5967" points="408,480 312,480 288,384 432,384 	"/>
	<polygon fill="#FFFFFF" points="294,408 297,420 423,420 426,408 	"/>
	<polygon opacity="0.1" points="288,384 312,480 336,384 	"/>
	<g>
		<path fill="#68BF60" d="M234,168v132c0,3.316,2.684,6,6,6s6-2.684,6-6V168H234z"/>
		<polygon fill="#6DB0F2" points="156,336 192,480 288,480 324,336 		"/>
		<g>
			<path fill="#6DB0F2" d="M324,336H156c-6.633,0-12-5.367-12-12v-36h192v36C336,330.633,330.633,336,324,336z"/>
		</g>
		<polygon opacity="0.1" points="156,336 162,360 318,360 324,336 		"/>
		<path fill="#CCCC52" d="M282,276c13.254,0,24-10.746,24-24h-24c-13.254,0-24,10.746-24,24H282z"/>
		<path fill="#CCCC52" d="M198,216c-13.254,0-24-10.746-24-24h24c13.254,0,24,10.746,24,24H198z"/>
		<path fill="#68BF60" d="M222,252c0-13.254-10.746-24-24-24v24c0,13.254,10.746,24,24,24V252z"/>
		<path fill="#68BF60" d="M258,216c0-13.254,10.746-24,24-24v24c0,13.254-10.746,24-24,24V216z"/>
	</g>
	<rect x="372" y="312" opacity="0.1" width="12" height="24"/>
	<circle fill="#FFFFFF" cx="372" cy="270" r="6"/>
	<circle fill="#FFFFFF" cx="348" cy="282" r="6"/>
	<circle fill="#FFFFFF" cx="372" cy="294" r="6"/>
	<circle fill="#FFFFFF" cx="372" cy="342" r="6"/>
	<circle fill="#FFFFFF" cx="348" cy="306" r="6"/>
	<circle fill="#FFFFFF" cx="348" cy="330" r="6"/>
	<circle fill="#FFFFFF" cx="348" cy="354" r="6"/>
	<circle fill="#FFFFFF" cx="372" cy="366" r="6"/>
	<circle fill="#FFFFFF" cx="420" cy="294" r="6"/>
	<circle fill="#FFFFFF" cx="396" cy="306" r="6"/>
	<circle fill="#FFFFFF" cx="408" cy="324" r="6"/>
	<rect x="234" y="168" opacity="0.1" width="12" height="36"/>
	<path fill="#F279AC" d="M288,144c0-7.523-5.625-13.477-12.844-14.566c4.336-5.871,4.102-14.051-1.219-19.371
		s-13.5-5.555-19.371-1.219C253.477,101.613,247.535,96,240,96s-13.477,5.613-14.566,12.844c-5.871-4.336-14.051-4.102-19.371,1.219
		s-5.566,13.5-1.219,19.371C197.613,130.523,192,136.477,192,144s5.613,13.477,12.844,14.566
		c-4.348,5.871-4.113,14.051,1.219,19.371c5.32,5.344,13.5,5.566,19.371,1.219C226.523,186.387,232.477,192,240,192
		s13.477-5.613,14.566-12.832c5.871,4.348,14.051,4.113,19.371-1.219c5.332-5.332,5.566-13.512,1.219-19.383
		C282.387,157.477,288,151.523,288,144z"/>
	<path fill="#FFFFFF" d="M258,143.988c0,9.926-8.051,18-18,18s-18-8.074-18-18s8.051-18,18-18S258,134.062,258,143.988z"/>
</g>
</svg>
