<?xml version="1.0" encoding="utf-8"?>
<!-- Generator: Adobe Illustrator 16.0.4, SVG Export Plug-In . SVG Version: 6.00 Build 0)  -->
<!DOCTYPE svg PUBLIC "-//W3C//DTD SVG 1.1//EN" "http://www.w3.org/Graphics/SVG/1.1/DTD/svg11.dtd">
<svg version="1.1" id="Layer_1" xmlns="http://www.w3.org/2000/svg" xmlns:xlink="http://www.w3.org/1999/xlink" x="0px" y="0px"
	 width="40px" height="40px" viewBox="0 0 40 40" enable-background="new 0 0 40 40" xml:space="preserve">
<path fill="#CCCCCC" d="M2,15.998c-1.105,0-2,0.896-2,2c0,0.396,0.114,0.766,0.316,1.078l12.367,19.162
	C13.401,39.301,14.62,40,16,40c1.48,0,2.771-0.801,3.465-1.996L39.731,3C39.902,2.707,40,2.363,40,2c0-1.104-0.895-2-2-2h-4.617
	c-0.739,0-1.386,0.402-1.73,1L15.812,28.342L8.417,16.887c-0.36-0.535-0.968-0.883-1.659-0.883L2,15.998z"/>
</svg>
