<?xml version="1.0" encoding="utf-8"?>
<!-- Generator: Adobe Illustrator 16.0.4, SVG Export Plug-In . SVG Version: 6.00 Build 0)  -->
<!DOCTYPE svg PUBLIC "-//W3C//DTD SVG 1.1//EN" "http://www.w3.org/Graphics/SVG/1.1/DTD/svg11.dtd">
<svg version="1.1" id="Layer_1" xmlns="http://www.w3.org/2000/svg" xmlns:xlink="http://www.w3.org/1999/xlink" x="0px" y="0px"
	 width="26px" height="26px" viewBox="0 0 26 26" enable-background="new 0 0 26 26" xml:space="preserve">
<g>
	<path fill="#FFFFFF" d="M13,0C5.818,0,0,5.818,0,13c0,7.18,5.818,13,13,13c7.18,0,13-5.82,13-13C26,5.818,20.18,0,13,0z M13,23.833
		C7.027,23.833,2.166,18.974,2.166,13C2.166,7.027,7.027,2.167,13,2.167S23.832,7.027,23.832,13
		C23.832,18.974,18.973,23.833,13,23.833z"/>
	<polygon fill="#FFFFFF" points="17.242,7.343 13,11.586 8.756,7.343 7.342,8.758 11.586,13 7.342,17.242 8.756,18.657 13,14.414
		17.242,18.657 18.656,17.242 14.414,13 18.656,8.758 	"/>
</g>
</svg>
