<?xml version="1.0" encoding="utf-8"?>
<!-- Generator: Adobe Illustrator 19.1.0, SVG Export Plug-In . SVG Version: 6.00 Build 0)  -->
<svg version="1.1" id="Layer_1" xmlns="http://www.w3.org/2000/svg" xmlns:xlink="http://www.w3.org/1999/xlink" x="0px" y="0px"
	 viewBox="0 0 40 40" style="enable-background:new 0 0 40 40;" xml:space="preserve">
<style type="text/css">
	.st0{opacity:0.2;fill:#FFFFFF;}
	.st1{opacity:0.5;fill:#FFFFFF;}
	.st2{fill:#010101;}
	.st3{fill:#FFFFFF;}
</style>
<g>
	<g>
		<g>
			<g>
				<path class="st0" d="M38.1,32.4c-2.8-1.6-8.5-2.6-15.2-2.6c-8.5,0-15.6,1.6-16.8,4.3L-0.2,1.4c-0.1-0.5,0.6-0.9,0.9-0.5
					L38.1,32.4z"/>
			</g>
		</g>
		<ellipse class="st1" cx="23.1" cy="34.8" rx="17" ry="4.8"/>
	</g>
	<path class="st2" d="M21.3,34.2"/>
	<circle class="st3" cx="36" cy="28.1" r="1.1"/>
	<polygon class="st3" points="35,14.3 34.1,11.5 31.3,10.6 34.1,9.7 35,7 35.9,9.7 38.6,10.6 35.8,11.6 	"/>
	<polygon class="st3" points="9.8,27.4 9.1,25.6 7.3,25 9.1,24.3 9.8,22.5 10.4,24.3 12.2,25 10.3,25.6 	"/>
	<path class="st3" d="M30.4,24.1c-2.8,0-4.9-2-4.9-5.4c0-1.7,0.6-2.5,1.6-2.5c0.9,0,1.4,0.8,1.4,2.4c0,0.9-0.2,1.9-0.4,2.5
		c0,0,0.9,1.5,3.2,1c0.5-1.1,0.8-2.6,0.8-3.8c0-3.4-1.7-5.4-4.9-5.4c-3.3,0-5.2,2.5-5.2,5.8c0,3.3,1.5,6.1,4,7.4
		c-1.1,2.1-2.4,3.3-3.8,4.7c-2.6-3.1-4.9-6.8-5.8-14.8h-3.8c1.7,14,6.9,17.2,8.3,18c0.8,0.5,1.4,0.5,2.2,0.1
		c1.1-0.6,4.4-3.4,6.3-7.3c0.8,0,1.6-0.1,2.6-0.3v-2.6C31,24,30.9,24.1,30.4,24.1z"/>
</g>
</svg>
