<?xml version="1.0" encoding="utf-8"?>
<!-- Generator: Adobe Illustrator 16.0.4, SVG Export Plug-In . SVG Version: 6.00 Build 0)  -->
<!DOCTYPE svg PUBLIC "-//W3C//DTD SVG 1.1//EN" "http://www.w3.org/Graphics/SVG/1.1/DTD/svg11.dtd">
<svg version="1.1" id="Layer_1" xmlns="http://www.w3.org/2000/svg" xmlns:xlink="http://www.w3.org/1999/xlink" x="0px" y="0px"
	 width="40px" height="40.001px" viewBox="0 0 40 40.001" enable-background="new 0 0 40 40.001" xml:space="preserve">
<g>
	<path fill="#CCCCCC" d="M25.657,20l13.76-13.76c0.777-0.777,0.777-2.051,0-2.828l-2.829-2.828c-0.777-0.777-2.05-0.779-2.828,0
		L20,14.344L6.24,0.584c-0.778-0.779-2.051-0.777-2.828,0L0.583,3.412c-0.777,0.777-0.777,2.051,0,2.828L14.343,20L0.583,33.762
		c-0.777,0.777-0.777,2.051,0,2.828l2.829,2.828c0.777,0.777,2.05,0.777,2.828,0L20,25.656l13.76,13.762
		c0.778,0.777,2.051,0.777,2.828,0l2.829-2.828c0.777-0.777,0.777-2.051,0-2.828L25.657,20z"/>
</g>
</svg>
