<?xml version="1.0" encoding="utf-8"?>
<!-- Generator: Adobe Illustrator 18.1.0, SVG Export Plug-In . SVG Version: 6.00 Build 0)  -->
<svg version="1.1" id="Layer_1" xmlns="http://www.w3.org/2000/svg" xmlns:xlink="http://www.w3.org/1999/xlink" x="0px" y="0px"
	 viewBox="0 0 736 184.9" enable-background="new 0 0 736 184.9" xml:space="preserve">
<g enable-background="new    ">
	<g>
		<g>
			<g>
				<g>
					<path fill="#FFFFFF" d="M256,0.4h3.1V18H256V0.4z"/>
					<path fill="#FFFFFF" d="M268.8,0.4h3.2l8,12.9h0V0.4h2.9V18h-3.2l-8-12.9h-0.1V18h-2.9V0.4z"/>
					<path fill="#FFFFFF" d="M291.2,0.4h14.2v2.7h-5.6V18h-3.1V3.1h-5.6V0.4z"/>
					<path fill="#FFFFFF" d="M313.6,0.4h8.4c1.9,0,3.4,0.4,4.4,1.3c1,0.8,1.5,2,1.5,3.5c0,0.8-0.1,1.5-0.4,2.1
						c-0.2,0.5-0.5,1-0.9,1.3c-0.3,0.3-0.7,0.6-1,0.7c-0.3,0.1-0.6,0.2-0.7,0.3v0c0.3,0,0.5,0.1,0.8,0.2c0.3,0.1,0.6,0.3,0.8,0.6
						c0.3,0.3,0.5,0.7,0.7,1.1c0.2,0.5,0.3,1,0.3,1.7c0,1,0.1,2,0.2,2.8c0.2,0.8,0.4,1.4,0.7,1.8h-3.3c-0.2-0.4-0.4-0.8-0.4-1.3
						c0-0.5-0.1-0.9-0.1-1.3c0-0.8,0-1.5-0.1-2.1c-0.1-0.6-0.3-1.1-0.5-1.5s-0.6-0.7-1.1-0.8s-1-0.3-1.7-0.3h-4.5V18h-3.1V0.4z
						 M316.6,8.4h5c1,0,1.7-0.2,2.2-0.7c0.5-0.5,0.8-1.2,0.8-2.1c0-0.6-0.1-1-0.2-1.4c-0.2-0.4-0.4-0.6-0.7-0.8s-0.6-0.3-1-0.4
						c-0.4-0.1-0.7-0.1-1.1-0.1h-5V8.4z"/>
					<path fill="#FFFFFF" d="M344.5,0c1.3,0,2.5,0.2,3.5,0.7c1,0.5,1.9,1.2,2.6,2c0.7,0.8,1.3,1.8,1.7,2.9c0.4,1.1,0.6,2.3,0.6,3.5
						c0,1.3-0.2,2.5-0.6,3.6s-0.9,2.1-1.7,2.9c-0.7,0.8-1.6,1.5-2.6,2c-1,0.5-2.2,0.7-3.5,0.7c-1.3,0-2.5-0.2-3.5-0.7
						c-1-0.5-1.9-1.1-2.6-2c-0.7-0.8-1.3-1.8-1.7-2.9c-0.4-1.1-0.6-2.3-0.6-3.6c0-1.2,0.2-2.4,0.6-3.5c0.4-1.1,0.9-2.1,1.7-2.9
						c0.7-0.8,1.6-1.5,2.6-2C342,0.2,343.2,0,344.5,0z M344.5,2.5c-0.9,0-1.7,0.2-2.4,0.6s-1.2,0.9-1.7,1.5
						c-0.4,0.6-0.7,1.3-0.9,2.2c-0.2,0.8-0.3,1.6-0.3,2.5c0,0.8,0.1,1.7,0.3,2.5c0.2,0.8,0.5,1.5,0.9,2.2c0.4,0.6,1,1.1,1.7,1.5
						s1.5,0.6,2.4,0.6c0.9,0,1.7-0.2,2.4-0.6c0.7-0.4,1.2-0.9,1.7-1.5c0.4-0.6,0.7-1.3,0.9-2.2s0.3-1.6,0.3-2.5
						c0-0.8-0.1-1.7-0.3-2.5s-0.5-1.5-0.9-2.2c-0.4-0.6-1-1.1-1.7-1.5C346.3,2.7,345.4,2.5,344.5,2.5z"/>
					<path fill="#FFFFFF" d="M361.9,0.4h7.3c1.3,0,2.5,0.2,3.5,0.7s1.8,1.1,2.4,1.9c0.6,0.8,1.1,1.7,1.4,2.8
						c0.3,1.1,0.5,2.2,0.5,3.4c0,1.2-0.2,2.4-0.5,3.4c-0.3,1.1-0.8,2-1.4,2.8c-0.6,0.8-1.4,1.4-2.4,1.9c-1,0.5-2.1,0.7-3.5,0.7h-7.3
						V0.4z M365,15.5h3c1.2,0,2.2-0.2,2.9-0.5c0.8-0.3,1.4-0.8,1.8-1.3c0.4-0.6,0.7-1.2,0.9-2c0.2-0.8,0.2-1.6,0.2-2.5
						c0-0.9-0.1-1.7-0.2-2.5c-0.2-0.8-0.5-1.4-0.9-2c-0.4-0.6-1-1-1.8-1.3c-0.8-0.3-1.7-0.5-2.9-0.5h-3V15.5z"/>
					<path fill="#FFFFFF" d="M385.6,0.4h3.1v10.2c0,0.6,0,1.2,0.1,1.8c0.1,0.6,0.2,1.2,0.5,1.6c0.3,0.5,0.7,0.9,1.2,1.2
						c0.5,0.3,1.3,0.5,2.3,0.5c1,0,1.8-0.2,2.3-0.5c0.5-0.3,1-0.7,1.2-1.2c0.3-0.5,0.4-1,0.5-1.6c0.1-0.6,0.1-1.2,0.1-1.8V0.4h3.1
						v11.2c0,1.1-0.2,2.1-0.5,3c-0.3,0.8-0.8,1.5-1.5,2.1c-0.6,0.6-1.4,1-2.3,1.3c-0.9,0.3-1.9,0.4-3,0.4c-1.1,0-2.1-0.1-3-0.4
						c-0.9-0.3-1.6-0.7-2.3-1.3c-0.6-0.6-1.1-1.3-1.5-2.1c-0.3-0.8-0.5-1.8-0.5-3V0.4z"/>
					<path fill="#FFFFFF" d="M421.6,6c-0.1-0.5-0.3-1-0.5-1.4c-0.2-0.4-0.5-0.8-0.9-1.1c-0.4-0.3-0.8-0.6-1.3-0.7
						c-0.5-0.2-1-0.3-1.7-0.3c-0.9,0-1.7,0.2-2.4,0.6s-1.2,0.9-1.7,1.5c-0.4,0.6-0.7,1.3-0.9,2.2c-0.2,0.8-0.3,1.6-0.3,2.5
						c0,0.8,0.1,1.7,0.3,2.5c0.2,0.8,0.5,1.5,0.9,2.2c0.4,0.6,1,1.1,1.7,1.5s1.5,0.6,2.4,0.6c0.7,0,1.3-0.1,1.8-0.4
						c0.5-0.2,1-0.6,1.4-1c0.4-0.4,0.7-0.9,0.9-1.5c0.2-0.6,0.4-1.2,0.4-1.8h3c-0.1,1-0.3,2-0.7,2.9c-0.4,0.9-0.9,1.6-1.6,2.3
						c-0.7,0.6-1.4,1.1-2.3,1.5c-0.9,0.3-1.9,0.5-2.9,0.5c-1.3,0-2.5-0.2-3.5-0.7c-1-0.5-1.9-1.1-2.6-2c-0.7-0.8-1.3-1.8-1.7-2.9
						s-0.6-2.3-0.6-3.6c0-1.2,0.2-2.4,0.6-3.5c0.4-1.1,0.9-2.1,1.7-2.9c0.7-0.8,1.6-1.5,2.6-2c1-0.5,2.2-0.7,3.5-0.7
						c1,0,1.9,0.1,2.8,0.4c0.9,0.3,1.6,0.7,2.3,1.2c0.7,0.5,1.2,1.1,1.6,1.9c0.4,0.7,0.7,1.6,0.8,2.5H421.6z"/>
					<path fill="#FFFFFF" d="M433.6,0.4h3.1V18h-3.1V0.4z"/>
					<path fill="#FFFFFF" d="M446.5,0.4h3.2l8,12.9h0V0.4h2.9V18h-3.2l-8-12.9h-0.1V18h-2.9V0.4z"/>
				</g>
				<g>
					<path fill="#FFFFFF" d="M485.9,18h-2l-0.5-2.1c-0.8,0.9-1.6,1.6-2.5,1.9c-0.8,0.4-1.8,0.5-2.8,0.5c-1.3,0-2.5-0.2-3.5-0.7
						c-1-0.5-1.9-1.1-2.6-2c-0.7-0.8-1.3-1.8-1.7-2.9c-0.4-1.1-0.6-2.3-0.6-3.6c0-1.2,0.2-2.4,0.6-3.5c0.4-1.1,0.9-2.1,1.7-2.9
						c0.7-0.8,1.6-1.5,2.6-2c1-0.5,2.2-0.7,3.5-0.7c1,0,1.9,0.1,2.7,0.4c0.9,0.3,1.6,0.6,2.3,1.1c0.7,0.5,1.2,1.1,1.7,1.9
						c0.4,0.8,0.7,1.6,0.8,2.6h-3c-0.1-0.6-0.3-1.1-0.5-1.5c-0.3-0.4-0.6-0.8-1-1.1c-0.4-0.3-0.9-0.5-1.4-0.7
						c-0.5-0.1-1-0.2-1.6-0.2c-0.9,0-1.7,0.2-2.4,0.6C475,3.5,474.5,4,474,4.6c-0.4,0.6-0.7,1.3-0.9,2.2c-0.2,0.8-0.3,1.6-0.3,2.5
						c0,0.8,0.1,1.7,0.3,2.5c0.2,0.8,0.5,1.5,0.9,2.2c0.4,0.6,1,1.1,1.7,1.5c0.7,0.4,1.5,0.6,2.4,0.6c0.8,0,1.5-0.1,2.1-0.3
						c0.6-0.2,1.1-0.5,1.5-1c0.4-0.4,0.7-0.9,0.9-1.5c0.2-0.6,0.3-1.3,0.3-2h-4.7V8.7h7.5V18z"/>
				</g>
			</g>
		</g>
		<g>
			<g>
				<defs>
					<polyline id="SVGID_1_" points="27.6,94.4 48.5,155.5 48.8,155.5 68.5,94.4 96.1,94.4 96.1,183.3 77.8,183.3 77.8,120.3
						77.5,120.3 55.6,183.3 40.5,183.3 18.6,120.9 18.4,120.9 18.4,183.3 0,183.3 0,94.4 27.6,94.4 					"/>
				</defs>
				<use xlink:href="#SVGID_1_"  overflow="visible" fill-rule="evenodd" clip-rule="evenodd" fill="#FFFFFF"/>
				<clipPath id="SVGID_2_">
					<use xlink:href="#SVGID_1_"  overflow="visible"/>
				</clipPath>
				<g clip-path="url(#SVGID_2_)">
					<defs>
						<rect id="SVGID_3_" x="-0.4" y="-7.4" width="736.6" height="192.5"/>
					</defs>
					<use xlink:href="#SVGID_3_"  overflow="visible" fill="#FFFFFF"/>
					<clipPath id="SVGID_4_">
						<use xlink:href="#SVGID_3_"  overflow="visible"/>
					</clipPath>
					<g clip-path="url(#SVGID_4_)">
						<rect x="-4.9" y="89.5" fill="#FFFFFF" width="106" height="98.6"/>
					</g>
				</g>
			</g>
		</g>
		<g>
			<g>
				<defs>
					<path id="SVGID_5_" d="M149,183.3v-9h-0.4c-2.2,3.7-5.2,6.4-8.8,8.1c-3.6,1.7-7.3,2.5-11,2.5c-4.7,0-8.6-0.6-11.7-1.9
						c-3-1.2-5.4-3-7.2-5.3c-1.7-2.3-3-5.1-3.7-8.3c-0.7-3.3-1.1-6.9-1.1-10.9v-39.6H123v36.3c0,5.3,0.8,9.3,2.5,11.9
						c1.7,2.6,4.6,3.9,8.9,3.9c4.8,0,8.3-1.4,10.5-4.3c2.2-2.9,3.3-7.6,3.3-14.1v-33.7h17.7v64.3H149"/>
				</defs>
				<use xlink:href="#SVGID_5_"  overflow="visible" fill-rule="evenodd" clip-rule="evenodd" fill="#FFFFFF"/>
				<clipPath id="SVGID_6_">
					<use xlink:href="#SVGID_5_"  overflow="visible"/>
				</clipPath>
				<g clip-path="url(#SVGID_6_)">
					<defs>
						<rect id="SVGID_7_" x="-0.4" y="-7.4" width="736.6" height="192.5"/>
					</defs>
					<use xlink:href="#SVGID_7_"  overflow="visible" fill="#FFFFFF"/>
					<clipPath id="SVGID_8_">
						<use xlink:href="#SVGID_7_"  overflow="visible"/>
					</clipPath>
					<g clip-path="url(#SVGID_8_)">
						<rect x="100.4" y="114" fill="#FFFFFF" width="70.5" height="75.8"/>
					</g>
				</g>
			</g>
		</g>
		<g>
			<g>
				<defs>
					<path id="SVGID_9_" d="M190.6,167.3c0.8,1.4,1.8,2.5,3.1,3.4c1.2,0.9,2.7,1.5,4.3,1.9c1.6,0.4,3.3,0.6,5.1,0.6
						c1.2,0,2.6-0.1,3.9-0.4c1.4-0.3,2.6-0.7,3.8-1.4c1.1-0.6,2.1-1.5,2.8-2.5c0.8-1,1.1-2.3,1.1-3.9c0-2.7-1.8-4.7-5.3-6
						c-3.5-1.3-8.5-2.6-14.8-4c-2.6-0.6-5.1-1.3-7.6-2.1c-2.5-0.8-4.6-1.8-6.6-3.1c-1.9-1.3-3.5-2.9-4.6-4.9
						c-1.2-1.9-1.8-4.3-1.8-7.2c0-4.1,0.8-7.5,2.4-10.2c1.6-2.7,3.8-4.8,6.4-6.3c2.7-1.5,5.7-2.6,9-3.2c3.3-0.6,6.7-0.9,10.2-0.9
						c3.5,0,6.9,0.3,10.2,1c3.3,0.7,6.2,1.8,8.8,3.4c2.6,1.6,4.7,3.7,6.4,6.3c1.7,2.6,2.7,5.9,3.1,9.9h-16.9
						c-0.2-3.4-1.5-5.7-3.9-6.9c-2.3-1.2-5.1-1.8-8.2-1.8c-1,0-2.1,0.1-3.3,0.2c-1.2,0.1-2.2,0.4-3.2,0.8c-1,0.4-1.8,1-2.4,1.8
						c-0.7,0.8-1,1.8-1,3.2c0,1.6,0.6,2.9,1.7,3.9c1.2,1,2.7,1.8,4.6,2.4c1.9,0.6,4,1.2,6.4,1.7c2.4,0.5,4.9,1,7.4,1.6
						c2.6,0.6,5.1,1.3,7.6,2.1c2.5,0.8,4.6,1.9,6.6,3.3c1.9,1.4,3.5,3.1,4.6,5.1c1.2,2,1.8,4.5,1.8,7.5c0,4.2-0.9,7.8-2.6,10.6
						c-1.7,2.9-3.9,5.2-6.7,6.9c-2.7,1.7-5.9,3-9.4,3.7c-3.5,0.7-7.2,1.1-10.8,1.1c-3.8,0-7.4-0.4-11-1.1c-3.6-0.7-6.8-2-9.6-3.7
						c-2.8-1.7-5.1-4-6.9-6.9c-1.8-2.9-2.8-6.5-2.9-10.8h16.9C189.4,164.3,189.8,165.9,190.6,167.3"/>
				</defs>
				<use xlink:href="#SVGID_9_"  overflow="visible" fill-rule="evenodd" clip-rule="evenodd" fill="#FFFFFF"/>
				<clipPath id="SVGID_10_">
					<use xlink:href="#SVGID_9_"  overflow="visible"/>
				</clipPath>
				<g clip-path="url(#SVGID_10_)">
					<defs>
						<rect id="SVGID_11_" x="-0.4" y="-7.4" width="736.6" height="192.5"/>
					</defs>
					<use xlink:href="#SVGID_11_"  overflow="visible" fill="#FFFFFF"/>
					<clipPath id="SVGID_12_">
						<use xlink:href="#SVGID_11_"  overflow="visible"/>
					</clipPath>
					<g clip-path="url(#SVGID_12_)">
						<rect x="167.6" y="112.3" fill="#FFFFFF" width="69.7" height="77.5"/>
					</g>
				</g>
			</g>
		</g>
		<g>
			<g>
				<defs>
					<path id="SVGID_13_" d="M239.5,118.9h17.8v64.3h-17.8V118.9z M239.5,94.4h17.8V109h-17.8V94.4z"/>
				</defs>
				<use xlink:href="#SVGID_13_"  overflow="visible" fill-rule="evenodd" clip-rule="evenodd" fill="#FFFFFF"/>
				<clipPath id="SVGID_14_">
					<use xlink:href="#SVGID_13_"  overflow="visible"/>
				</clipPath>
				<g clip-path="url(#SVGID_14_)">
					<defs>
						<rect id="SVGID_15_" x="-0.4" y="-7.4" width="736.6" height="192.5"/>
					</defs>
					<use xlink:href="#SVGID_15_"  overflow="visible" fill="#FFFFFF"/>
					<clipPath id="SVGID_16_">
						<use xlink:href="#SVGID_15_"  overflow="visible"/>
					</clipPath>
					<g clip-path="url(#SVGID_16_)">
						<rect x="234.6" y="89.5" fill="#FFFFFF" width="27.6" height="98.6"/>
					</g>
				</g>
			</g>
		</g>
		<g>
			<g>
				<defs>
					<path id="SVGID_17_" d="M298.4,130.5c-2.8,0-5.2,0.6-7.1,1.9c-1.9,1.3-3.5,3-4.7,5c-1.2,2-2.1,4.3-2.6,6.7
						c-0.5,2.4-0.8,4.9-0.8,7.3c0,2.3,0.3,4.7,0.8,7.1c0.5,2.4,1.3,4.6,2.4,6.5c1.1,1.9,2.6,3.5,4.6,4.8c1.9,1.3,4.3,1.9,7,1.9
						c4.3,0,7.5-1.2,9.8-3.5c2.3-2.4,3.7-5.5,4.3-9.5h17.1c-1.2,8.5-4.5,15-10,19.5c-5.5,4.5-12.6,6.7-21.1,6.7
						c-4.8,0-9.3-0.8-13.3-2.4c-4-1.6-7.5-3.9-10.3-6.8c-2.8-2.9-5-6.4-6.6-10.4c-1.6-4-2.4-8.4-2.4-13.2c0-5,0.7-9.6,2.2-13.9
						c1.5-4.3,3.6-8,6.4-11.1c2.8-3.1,6.3-5.5,10.4-7.3c4.1-1.7,8.8-2.6,14-2.6c3.8,0,7.5,0.5,11.1,1.5c3.5,1,6.7,2.5,9.5,4.5
						c2.8,2,5.1,4.6,6.8,7.6c1.8,3,2.8,6.6,3,10.8h-17.4C310.4,134.2,306,130.5,298.4,130.5"/>
				</defs>
				<use xlink:href="#SVGID_17_"  overflow="visible" fill-rule="evenodd" clip-rule="evenodd" fill="#FFFFFF"/>
				<clipPath id="SVGID_18_">
					<use xlink:href="#SVGID_17_"  overflow="visible"/>
				</clipPath>
				<g clip-path="url(#SVGID_18_)">
					<defs>
						<rect id="SVGID_19_" x="-0.4" y="-7.4" width="736.6" height="192.5"/>
					</defs>
					<use xlink:href="#SVGID_19_"  overflow="visible" fill="#FFFFFF"/>
					<clipPath id="SVGID_20_">
						<use xlink:href="#SVGID_19_"  overflow="visible"/>
					</clipPath>
					<g clip-path="url(#SVGID_20_)">
						<rect x="260.6" y="112.3" fill="#FFFFFF" width="73.6" height="77.5"/>
					</g>
				</g>
			</g>
		</g>
		<g>
			<g>
				<defs>
					<path id="SVGID_21_" d="M713.1,134.7c4.7,0,7,2.5,7,5.6c0,4.1-3.9,11.1-22.1,11.3C698.7,141.6,705.3,134.7,713.1,134.7z
						 M732.4,165.6c-4.1,2.4-9.8,4.3-16.7,4.3c-7.6,0-13.3-2.4-16-7.9c20.8,0.5,36.3-7.3,36.3-22.7c0-11.4-8.8-19.7-22.7-19.7
						c-18.7,0-28.4,14.3-32.3,29.5c-2.3,8.9-5.7,20.6-12.6,20.6c-4.3,0-5.5-4.3-5.5-9.7v-17.9c0-14.7-7.2-22.5-18.5-22.5
						c-10,0-17.8,6-22.2,13.3l-0.4-11.9h-14.6c0,0-1.9,48.7-18.2,48.7c-5.6,0-7.4-6.3-7.4-13.5V121h-13.9
						c-7.5,8.5-17.7,10.6-25.2,10.6c-13.6,0-24.1-9.4-24.1-25.9c0-8,3.1-12.2,7.5-12.2c4.2,0,7,3.8,7,11.4c0,4.3-1.2,9.1-2,11.9
						c0,0,4.2,7.3,15.6,5c2.4-5.4,3.8-12.3,3.8-18.4c0-16.4-8.4-26-23.8-26c-15.9,0-25.1,12.1-25.1,28.1c0,15.8,7.4,29.4,19.7,35.6
						c-5.2,10.3-11.7,19.3-18.6,26.1c-12.4-14.9-23.6-34.9-28.3-73.8h-18.3c8.5,64.7,33.7,85.4,40.4,89.4c3.8,2.3,7,2.1,10.5,0.2
						c5.4-3.1,21.7-19.3,30.7-38.2c8.1,0,20.2-1.9,27.7-7.5v18.4c0,20.8,7.4,28.9,19.8,28.9c9.9,0,17.6-7.7,21.4-16.4v15.3h16.5
						v-18.1c0-20.5,7.5-30.5,16.2-30.5c4.9,0,6.5,3.2,6.5,11.4v16.3c0,13.8,7.7,21.9,18.7,21.9c9,0,17.2-7,20.4-15.9
						c5.5,11.2,18,15.9,28.9,15.9c7.3,0,14.1-1.4,19-3.8V165.6z"/>
				</defs>
				<use xlink:href="#SVGID_21_"  overflow="visible" fill-rule="evenodd" clip-rule="evenodd" fill="#FFFFFF"/>
				<clipPath id="SVGID_22_">
					<use xlink:href="#SVGID_21_"  overflow="visible"/>
				</clipPath>
				<g clip-path="url(#SVGID_22_)">
					<defs>
						<rect id="SVGID_23_" x="-0.4" y="-7.4" width="736.6" height="192.5"/>
					</defs>
					<use xlink:href="#SVGID_23_"  overflow="visible" fill="#FFFFFF"/>
					<clipPath id="SVGID_24_">
						<use xlink:href="#SVGID_23_"  overflow="visible"/>
					</clipPath>
					<g clip-path="url(#SVGID_24_)">
						<rect x="450.8" y="72.6" fill="#FFFFFF" width="290.1" height="117.1"/>
					</g>
				</g>
			</g>
		</g>
		<g>
			<g>
				<defs>
					<path id="SVGID_25_" d="M574.1,111.7c6.6,0,11.1-4.9,11.1-11.3c0-6.3-4.5-11.2-11.1-11.2c-6.6,0-11,4.4-11,11.2
						C563.1,107.2,567.5,111.7,574.1,111.7"/>
				</defs>
				<use xlink:href="#SVGID_25_"  overflow="visible" fill-rule="evenodd" clip-rule="evenodd" fill="#FFFFFF"/>
				<clipPath id="SVGID_26_">
					<use xlink:href="#SVGID_25_"  overflow="visible"/>
				</clipPath>
				<g clip-path="url(#SVGID_26_)">
					<defs>
						<rect id="SVGID_27_" x="-0.4" y="-7.4" width="736.6" height="192.5"/>
					</defs>
					<use xlink:href="#SVGID_27_"  overflow="visible" fill="#FFFFFF"/>
					<clipPath id="SVGID_28_">
						<use xlink:href="#SVGID_27_"  overflow="visible"/>
					</clipPath>
					<g clip-path="url(#SVGID_28_)">
						<rect x="558.2" y="84.4" fill="#FFFFFF" width="31.9" height="32.3"/>
					</g>
				</g>
			</g>
		</g>
		<g>
			<g>
				<g>
					<path fill="#FFFFFF" d="M362.3,138.4c0.6-2,1.6-3.8,2.9-5.3c1.3-1.5,2.9-2.8,4.7-3.7c1.9-0.9,4.1-1.4,6.6-1.4
						c2.5,0,4.7,0.5,6.6,1.4c1.9,0.9,3.5,2.1,4.7,3.7c1.3,1.5,2.2,3.3,2.9,5.3c0.6,2,1,4.1,1,6.2c0,2.2-0.3,4.2-1,6.2
						c-0.6,2-1.6,3.8-2.9,5.3c-1.3,1.5-2.9,2.8-4.7,3.7c-1.9,0.9-4.1,1.4-6.6,1.4c-2.5,0-4.7-0.5-6.6-1.4c-1.9-0.9-3.5-2.1-4.7-3.7
						c-1.3-1.5-2.2-3.3-2.9-5.3c-0.6-2-1-4.1-1-6.2C361.4,142.4,361.7,140.4,362.3,138.4z M366.2,149.3c0.4,1.6,1.1,2.9,1.9,4.2
						c0.9,1.2,2,2.2,3.4,3c1.4,0.8,3,1.1,5,1.1c1.9,0,3.6-0.4,5-1.1c1.4-0.8,2.5-1.8,3.4-3c0.9-1.2,1.5-2.6,1.9-4.2
						c0.4-1.5,0.6-3.1,0.6-4.7c0-1.6-0.2-3.2-0.6-4.7c-0.4-1.6-1.1-2.9-1.9-4.2c-0.9-1.2-2-2.2-3.4-3c-1.4-0.8-3-1.1-5-1.1
						c-1.9,0-3.6,0.4-5,1.1c-1.4,0.8-2.5,1.7-3.4,3c-0.9,1.2-1.5,2.6-1.9,4.2c-0.4,1.6-0.6,3.1-0.6,4.7
						C365.6,146.2,365.8,147.8,366.2,149.3z"/>
					<path fill="#FFFFFF" d="M404.7,128.8l16.7,25.7h0.1v-25.7h4v31.6h-4.6L404.3,135h-0.1v25.4h-4v-31.6H404.7z"/>
				</g>
			</g>
		</g>
	</g>
</g>
</svg>
