<?xml version="1.0" encoding="utf-8"?>
<!-- Generator: Adobe Illustrator 16.0.4, SVG Export Plug-In . SVG Version: 6.00 Build 0)  -->
<!DOCTYPE svg PUBLIC "-//W3C//DTD SVG 1.1//EN" "http://www.w3.org/Graphics/SVG/1.1/DTD/svg11.dtd">
<svg version="1.1" id="Layer_1" xmlns="http://www.w3.org/2000/svg" xmlns:xlink="http://www.w3.org/1999/xlink" x="0px" y="0px"
	 width="40px" height="36px" viewBox="0 0 40 36" enable-background="new 0 0 40 36" xml:space="preserve">
<path fill="#f45060" d="M39.746,33.025l-18-32C21.404,0.414,20.75,0,20,0s-1.404,0.414-1.746,1.025l-18,32
	C0.092,33.314,0,33.646,0,34c0,1.105,0.896,2,2,2h36c1.104,0,2-0.895,2-2C40,33.646,39.908,33.314,39.746,33.025z M20,32
	c-1.657,0-3-1.342-3-3c0-1.656,1.343-3,3-3s3,1.344,3,3C23,30.658,21.657,32,20,32z M22.924,15.678L21,24h-2l-1.924-8.322
	C17.026,15.461,17,15.234,17,15c0-1.656,1.343-3,3-3s3,1.344,3,3C23,15.234,22.974,15.461,22.924,15.678z"/>
</svg>
