<?xml version="1.0" encoding="utf-8"?>
<!-- Generator: Adobe Illustrator 16.0.4, SVG Export Plug-In . SVG Version: 6.00 Build 0)  -->
<!DOCTYPE svg PUBLIC "-//W3C//DTD SVG 1.1//EN" "http://www.w3.org/Graphics/SVG/1.1/DTD/svg11.dtd">
<svg version="1.1" id="Layer_1" xmlns="http://www.w3.org/2000/svg" xmlns:xlink="http://www.w3.org/1999/xlink" x="0px" y="0px"
	 width="22.899px" height="5.4px" viewBox="0 0 22.899 5.4" enable-background="new 0 0 22.899 5.4" xml:space="preserve">
<g>
	<path fill="#434343" d="M5.4,2.7c0,0.767-0.254,1.409-0.763,1.925S3.483,5.4,2.7,5.4c-0.784,0-1.429-0.258-1.938-0.775S0,3.467,0,2.7
		c0-0.783,0.254-1.429,0.762-1.938C1.271,0.254,1.916,0,2.7,0c0.783,0,1.429,0.254,1.938,0.762C5.146,1.271,5.4,1.917,5.4,2.7z"/>
	<path fill="#434343" d="M14.15,2.7c0,0.767-0.254,1.409-0.763,1.925S12.233,5.4,11.45,5.4c-0.784,0-1.429-0.258-1.938-0.775S8.75,3.467,8.75,2.7
		c0-0.783,0.254-1.429,0.762-1.938C10.021,0.254,10.666,0,11.45,0c0.783,0,1.429,0.254,1.938,0.762
		C13.896,1.271,14.15,1.917,14.15,2.7z"/>
	<path fill="#434343" d="M22.899,2.7c0,0.767-0.254,1.409-0.763,1.925S20.982,5.4,20.199,5.4c-0.784,0-1.429-0.258-1.938-0.775S17.5,3.467,17.5,2.7
		c0-0.783,0.254-1.429,0.762-1.938C18.77,0.254,19.416,0,20.199,0c0.783,0,1.429,0.254,1.938,0.762
		C22.645,1.271,22.899,1.917,22.899,2.7z"/>
</g>
</svg>
