<?xml version="1.0" encoding="UTF-8" standalone="no"?>
<svg width="16px" height="16px" viewBox="0 0 16 16" version="1.1" xmlns="http://www.w3.org/2000/svg" xmlns:xlink="http://www.w3.org/1999/xlink">
    <!-- Generator: Sketch 3.6.1 (26313) - http://www.bohemiancoding.com/sketch -->
    <title>Imported Layers Copy 5</title>
    <desc>Created with Sketch.</desc>
    <defs></defs>
    <g id="Web" stroke="none" stroke-width="1" fill="none" fill-rule="evenodd">
        <g id="01-Feed" transform="translate(-789.000000, -670.000000)" fill="#FFFFFF">
            <g id="CARD.default-+-CARD.comments" transform="translate(450.000000, 110.000000)">
                <g id="CARD.default">
                    <g id="Group" transform="translate(0.000000, 68.000000)">
                        <g id="Group-Copy" transform="translate(327.000000, 480.000000)">
                            <path d="M12,19.9998 C12,24.4188895 15.5812,28 20,28 C24.4184,28 28,24.4188895 28,19.9998 C28,15.5819105 24.4184,12 20,12 C15.5812,12 12,15.5819105 12,19.9998 Z M19.8898467,17.4416613 C18.8493989,16.7345634 18.0059494,17.1845939 18.0059494,18.4316098 L18.0059494,21.5967026 C18.0059494,22.850534 18.8322024,23.2748854 19.8590563,22.5390583 L21.6718621,21.2400306 C22.6953048,20.506648 22.6867487,19.3424616 21.6410717,18.6318099 L19.8898467,17.4416613 Z" id="Imported-Layers-Copy-5"></path>
                        </g>
                    </g>
                </g>
            </g>
        </g>
    </g>
</svg>