<?xml version="1.0" encoding="utf-8"?>
<!-- Generator: Adobe Illustrator 16.0.4, SVG Export Plug-In . SVG Version: 6.00 Build 0)  -->
<!DOCTYPE svg PUBLIC "-//W3C//DTD SVG 1.1//EN" "http://www.w3.org/Graphics/SVG/1.1/DTD/svg11.dtd">
<svg version="1.1" id="Layer_1" xmlns="http://www.w3.org/2000/svg" xmlns:xlink="http://www.w3.org/1999/xlink" x="0px" y="0px"
	 width="20px" height="16px" viewBox="0 0 20 16" enable-background="new 0 0 20 16" xml:space="preserve">
<path fill="#FFFFFF" d="M0,3c0-1.656,1.344-3,3-3s3,1.344,3,3S4.656,6,3,6S0,4.656,0,3z M18.434,12.394
	C16.172,14.72,13.177,16,10,16s-6.172-1.279-8.434-3.605c-0.77-0.791-0.753-2.057,0.039-2.828c0.792-0.769,2.058-0.753,2.828,0.039
	C5.936,11.15,7.913,12,10,12c2.088,0,4.064-0.85,5.566-2.395c0.77-0.791,2.036-0.809,2.828-0.039
	C19.187,10.337,19.203,11.603,18.434,12.394z M17,6c-1.656,0-3-1.344-3-3s1.344-3,3-3s3,1.344,3,3S18.656,6,17,6z"/>
</svg>
