<?xml version="1.0" encoding="utf-8"?>
<!-- Generator: Adobe Illustrator 16.0.4, SVG Export Plug-In . SVG Version: 6.00 Build 0)  -->
<!DOCTYPE svg PUBLIC "-//W3C//DTD SVG 1.1//EN" "http://www.w3.org/Graphics/SVG/1.1/DTD/svg11.dtd">
<svg version="1.1" id="Layer_1" xmlns="http://www.w3.org/2000/svg" xmlns:xlink="http://www.w3.org/1999/xlink" x="0px" y="0px"
	 width="108px" height="120px" viewBox="36 30 108 120" enable-background="new 36 30 108 120" xml:space="preserve">
<g>
	<path fill="#FFFFFF" d="M84,90v36c0,6.602,5.399,12,12,12h14.484h0.152l10.682,10.682c0.813,0.814,1.938,1.318,3.182,1.318
		s2.367-0.504,3.182-1.318c0.815-0.813,1.318-1.939,1.318-3.182V138h3c6.598,0,12-5.398,12-12V90c0-6.601-5.402-12-12-12H96
		C89.399,78,84,83.399,84,90z M129,103.5c0,2.484-2.016,4.5-4.5,4.5s-4.5-2.016-4.5-4.5s2.016-4.5,4.5-4.5S129,101.016,129,103.5z
		 M101.408,113.35c1.188-1.154,3.088-1.127,4.242,0.06c2.254,2.317,5.221,3.592,8.35,3.592c3.132,0,6.098-1.274,8.35-3.592
		c1.157-1.187,3.057-1.21,4.242-0.06c1.188,1.157,1.215,3.057,0.059,4.242C123.258,121.081,118.768,123,114,123
		c-4.766,0-9.258-1.919-12.65-5.408C100.195,116.405,100.223,114.507,101.408,113.35z M99,103.5c0-2.484,2.016-4.5,4.5-4.5
		s4.5,2.016,4.5,4.5s-2.016,4.5-4.5,4.5S99,105.984,99,103.5z"/>
	<path fill="#FFFFFF" d="M96,72V42c0-6.601-5.398-12-12-12H48c-6.598,0-12,5.399-12,12v36c0,6.601,5.402,12,12,12h3v7.5
		c0,1.242,0.504,2.367,1.318,3.182c0.814,0.815,1.94,1.318,3.182,1.318s2.367-0.504,3.182-1.318L69.363,90h0.152H78
		C78,80.074,86.074,72,96,72z M76.5,51c2.484,0,4.5,2.016,4.5,4.5S78.984,60,76.5,60S72,57.984,72,55.5S74.016,51,76.5,51z M51,55.5
		c0-2.484,2.016-4.5,4.5-4.5s4.5,2.016,4.5,4.5S57.984,60,55.5,60S51,57.984,51,55.5z M66,75c-4.767,0-9.258-1.919-12.65-5.408
		c-1.156-1.187-1.129-3.085,0.059-4.242c1.187-1.151,3.085-1.128,4.242,0.059C59.903,67.726,62.868,69,66,69
		c3.129,0,6.096-1.274,8.35-3.592c1.154-1.187,3.056-1.213,4.242-0.059c1.187,1.157,1.213,3.056,0.059,4.242
		C75.258,73.081,70.766,75,66,75z"/>
</g>
</svg>
