<?xml version="1.0" encoding="utf-8"?>
<!-- Generator: Adobe Illustrator 16.0.4, SVG Export Plug-In . SVG Version: 6.00 Build 0)  -->
<!DOCTYPE svg PUBLIC "-//W3C//DTD SVG 1.1//EN" "http://www.w3.org/Graphics/SVG/1.1/DTD/svg11.dtd">
<svg version="1.1" id="Layer_1" xmlns="http://www.w3.org/2000/svg" xmlns:xlink="http://www.w3.org/1999/xlink" x="0px" y="0px"
	 width="48px" height="48px" viewBox="0 0 48 48" enable-background="new 0 0 48 48" xml:space="preserve">
<g>
	<g>
		<g>
			<g>
				<g>
					<g>
						<g>
							<g>
								<g>
									<g>
										<g>
											<path fill="#333333" d="M48,44c0,2.199-1.801,4-4,4H4c-2.199,0-4-1.801-4-4V4c0-2.199,1.801-4,4-4h40
												c2.199,0,4,1.801,4,4V44z"/>
										</g>
									</g>
								</g>
							</g>
						</g>
					</g>
				</g>
			</g>
		</g>
	</g>
	<g>
		<path fill="#FCB874" d="M40.469,25.469C40.82,25.117,41,24.621,41,24s-0.18-1.117-0.531-1.469l-1.506-1.506
			c-0.506-0.506-0.703-1.24-0.518-1.932l0.551-2.059c0.129-0.48,0.037-0.996-0.275-1.535c-0.311-0.539-0.713-0.879-1.197-1.008
			l-2.053-0.549c-0.689-0.186-1.229-0.725-1.414-1.414l-0.553-2.061c-0.129-0.479-0.465-0.879-1.006-1.191
			c-0.383-0.223-0.746-0.328-1.111-0.328c-0.145,0-0.289,0.018-0.43,0.055l-2.051,0.551c-0.172,0.047-0.344,0.068-0.518,0.068
			c-0.523,0-1.033-0.205-1.414-0.586l-1.506-1.506C25.117,7.18,24.621,7,24,7s-1.117,0.18-1.469,0.531l-1.506,1.506
			c-0.381,0.381-0.891,0.586-1.414,0.586c-0.174,0-0.346-0.021-0.518-0.068l-2.059-0.551c-0.137-0.039-0.279-0.057-0.424-0.057
			c-0.357,0-0.732,0.111-1.113,0.332c-0.537,0.311-0.877,0.711-1.006,1.191l-0.551,2.057c-0.184,0.689-0.723,1.23-1.412,1.414
			l-2.057,0.551c-0.482,0.129-0.883,0.469-1.195,1.012C8.965,16.039,8.873,16.555,9,17.033l0.555,2.061
			c0.184,0.691-0.012,1.428-0.52,1.934l-1.504,1.504C7.18,22.883,7,23.379,7,24s0.18,1.117,0.531,1.469l1.504,1.504
			c0.506,0.506,0.703,1.242,0.52,1.934l-0.553,2.059c-0.129,0.48-0.037,0.996,0.275,1.535s0.713,0.879,1.197,1.008l2.053,0.549
			c0.691,0.186,1.23,0.725,1.414,1.414l0.553,2.061c0.127,0.479,0.467,0.879,1.006,1.191c0.383,0.223,0.746,0.328,1.109,0.328
			c0.146,0,0.291-0.018,0.432-0.055l2.053-0.551c0.172-0.047,0.344-0.068,0.518-0.068c0.523,0,1.033,0.205,1.414,0.586l1.506,1.506
			C22.883,40.82,23.379,41,24,41s1.117-0.18,1.469-0.531l1.506-1.506c0.381-0.381,0.891-0.586,1.414-0.586
			c0.174,0,0.346,0.021,0.518,0.068l2.059,0.551c0.137,0.037,0.277,0.055,0.424,0.055c0.359,0,0.732-0.109,1.111-0.328
			c0.539-0.311,0.877-0.713,1.006-1.195l0.551-2.057c0.186-0.689,0.725-1.229,1.414-1.414l2.061-0.553
			c0.477-0.125,0.879-0.465,1.188-0.996c0.312-0.543,0.406-1.062,0.277-1.543l-0.551-2.059c-0.186-0.691,0.012-1.426,0.518-1.932
			L40.469,25.469z"/>
		<g>
			<path fill="#FFFFFF" d="M20,25c0,2.5,1.5,4,4,4s4-1.5,4-4H20z"/>
			<g>
				<path fill="#FFFFFF" d="M20.5,20c-0.938,0-1.5,0.562-1.5,1.5s0.562,1.5,1.5,1.5s1.5-0.562,1.5-1.5S21.438,20,20.5,20z"/>
				<path fill="#FFFFFF" d="M27.5,20c-0.938,0-1.5,0.562-1.5,1.5s0.562,1.5,1.5,1.5s1.5-0.562,1.5-1.5S28.438,20,27.5,20z"/>
			</g>
		</g>
		<path opacity="0.1" fill="#010101" d="M24,12V7c-0.621,0-1.117,0.18-1.469,0.531l-1.506,1.506
			c-0.381,0.381-0.891,0.586-1.414,0.586c-0.174,0-0.346-0.021-0.518-0.068l-2.059-0.551c-0.137-0.039-0.279-0.057-0.424-0.057
			c-0.357,0-0.732,0.111-1.113,0.332c-0.537,0.311-0.877,0.711-1.006,1.191l-0.551,2.057c-0.184,0.689-0.723,1.23-1.412,1.414
			l-2.057,0.551c-0.482,0.129-0.883,0.469-1.195,1.012C8.965,16.039,8.873,16.555,9,17.033l0.555,2.061
			c0.184,0.691-0.012,1.428-0.52,1.934l-1.504,1.504C7.18,22.883,7,23.379,7,24s0.18,1.117,0.531,1.469l1.504,1.504
			c0.506,0.506,0.703,1.242,0.52,1.934l-0.553,2.059c-0.129,0.48-0.037,0.996,0.275,1.535s0.713,0.879,1.197,1.008l2.053,0.549
			c0.691,0.186,1.23,0.725,1.414,1.414l0.553,2.061c0.127,0.479,0.467,0.879,1.006,1.191c0.383,0.223,0.746,0.328,1.109,0.328
			c0.146,0,0.291-0.018,0.432-0.055l2.053-0.551c0.172-0.047,0.344-0.068,0.518-0.068c0.523,0,1.033,0.205,1.414,0.586l1.506,1.506
			C22.883,40.82,23.379,41,24,41v-5c7.5,0,12-4.5,12-12S31.5,12,24,12z M24,34c-6.25,0-10-3.75-10-10s3.75-10,10-10s10,3.75,10,10
			S30.25,34,24,34z"/>
	</g>
</g>
</svg>
